<?xml version="1.0" encoding="UTF-8" standalone="no"?>
<!DOCTYPE svg PUBLIC "-//W3C//DTD SVG 1.1//EN"
 "http://www.w3.org/Graphics/SVG/1.1/DTD/svg11.dtd">
<!-- Generated by graphviz version 2.28.0 (20120716.1447)
 -->
<!-- Title: _anonymous_0 Pages: 1 -->
<svg width="278pt" height="260pt"
 viewBox="0.00 0.00 278.00 260.00" xmlns="http://www.w3.org/2000/svg" xmlns:xlink="http://www.w3.org/1999/xlink">
<g id="graph1" class="graph" transform="scale(1 1) rotate(0) translate(4 256)">
<title>_anonymous_0</title>
<polygon fill="white" stroke="white" points="-4,5 -4,-256 275,-256 275,5 -4,5"/>
<!-- 649 -->
<g id="node1" class="node"><title>649</title>
<text text-anchor="middle" x="105" y="-230.3" font-family="Times,serif" font-size="14.00">&lt;projection&gt;</text>
</g>
<!-- 651 -->
<g id="node2" class="node"><title>651</title>
<text text-anchor="middle" x="53" y="-158.3" font-family="Times,serif" font-size="14.00">&lt;id&gt;</text>
</g>
<!-- 649&#45;&gt;651 -->
<g id="edge2" class="edge"><title>649&#45;&gt;651</title>
<path fill="none" stroke="black" d="M92.1461,-215.697C85.9749,-207.389 78.463,-197.277 71.676,-188.141"/>
<polygon fill="black" stroke="black" points="74.479,-186.045 65.7061,-180.104 68.8597,-190.219 74.479,-186.045"/>
</g>
<!-- 653 -->
<g id="node4" class="node"><title>653</title>
<text text-anchor="middle" x="157" y="-158.3" font-family="Times,serif" font-size="14.00">&lt;projection&#39;&gt;</text>
</g>
<!-- 649&#45;&gt;653 -->
<g id="edge4" class="edge"><title>649&#45;&gt;653</title>
<path fill="none" stroke="black" d="M117.854,-215.697C124.025,-207.389 131.537,-197.277 138.324,-188.141"/>
<polygon fill="black" stroke="black" points="141.14,-190.219 144.294,-180.104 135.521,-186.045 141.14,-190.219"/>
</g>
<!-- 652 -->
<g id="node3" class="node"><title>652</title>
<text text-anchor="middle" x="27" y="-86.3" font-family="Times,serif" font-size="14.00">@Id a</text>
</g>
<!-- 651&#45;&gt;652 -->
<g id="edge6" class="edge"><title>651&#45;&gt;652</title>
<path fill="none" stroke="black" d="M46.573,-143.697C43.6449,-135.813 40.113,-126.304 36.8601,-117.546"/>
<polygon fill="black" stroke="black" points="40.116,-116.26 33.353,-108.104 33.554,-118.697 40.116,-116.26"/>
</g>
<!-- 662 -->
<g id="node5" class="node"><title>662</title>
<text text-anchor="middle" x="99" y="-86.3" font-family="Times,serif" font-size="14.00">&lt;bits&gt;</text>
</g>
<!-- 653&#45;&gt;662 -->
<g id="edge8" class="edge"><title>653&#45;&gt;662</title>
<path fill="none" stroke="black" d="M142.663,-143.697C135.709,-135.305 127.23,-125.07 119.599,-115.861"/>
<polygon fill="black" stroke="black" points="122.247,-113.571 113.172,-108.104 116.857,-118.038 122.247,-113.571"/>
</g>
<!-- 676 -->
<g id="node7" class="node"><title>676</title>
<text text-anchor="middle" x="171" y="-86.3" font-family="Times,serif" font-size="14.00">&lt;bits&gt;</text>
</g>
<!-- 653&#45;&gt;676 -->
<g id="edge10" class="edge"><title>653&#45;&gt;676</title>
<path fill="none" stroke="black" d="M160.461,-143.697C162.003,-135.983 163.858,-126.712 165.578,-118.112"/>
<polygon fill="black" stroke="black" points="169.05,-118.597 167.579,-108.104 162.186,-117.224 169.05,-118.597"/>
</g>
<!-- 685 -->
<g id="node9" class="node"><title>685</title>
</g>
<!-- 653&#45;&gt;685 -->
<g id="edge12" class="edge"><title>653&#45;&gt;685</title>
<path fill="none" stroke="black" d="M178.258,-143.697C189.089,-134.881 202.418,-124.032 214.16,-114.474"/>
<polygon fill="black" stroke="black" points="216.44,-117.132 221.986,-108.104 212.021,-111.703 216.44,-117.132"/>
</g>
<!-- 663 -->
<g id="node6" class="node"><title>663</title>
<text text-anchor="middle" x="99" y="-14.3" font-family="Times,serif" font-size="14.00">@Bt 0</text>
</g>
<!-- 662&#45;&gt;663 -->
<g id="edge14" class="edge"><title>662&#45;&gt;663</title>
<path fill="none" stroke="black" d="M99,-71.6966C99,-63.9827 99,-54.7125 99,-46.1124"/>
<polygon fill="black" stroke="black" points="102.5,-46.1043 99,-36.1043 95.5001,-46.1044 102.5,-46.1043"/>
</g>
<!-- 677 -->
<g id="node8" class="node"><title>677</title>
<text text-anchor="middle" x="171" y="-14.3" font-family="Times,serif" font-size="14.00">@Bt 1</text>
</g>
<!-- 676&#45;&gt;677 -->
<g id="edge16" class="edge"><title>676&#45;&gt;677</title>
<path fill="none" stroke="black" d="M171,-71.6966C171,-63.9827 171,-54.7125 171,-46.1124"/>
<polygon fill="black" stroke="black" points="174.5,-46.1043 171,-36.1043 167.5,-46.1044 174.5,-46.1043"/>
</g>
</g>
</svg>
