<?xml version="1.0" encoding="UTF-8" standalone="no"?>
<!DOCTYPE svg PUBLIC "-//W3C//DTD SVG 1.1//EN"
 "http://www.w3.org/Graphics/SVG/1.1/DTD/svg11.dtd">
<!-- Generated by graphviz version 2.28.0 (20120716.1447)
 -->
<!-- Title: _anonymous_0 Pages: 1 -->
<svg width="321pt" height="332pt"
 viewBox="0.00 0.00 321.00 332.00" xmlns="http://www.w3.org/2000/svg" xmlns:xlink="http://www.w3.org/1999/xlink">
<g id="graph1" class="graph" transform="scale(1 1) rotate(0) translate(4 328)">
<title>_anonymous_0</title>
<polygon fill="white" stroke="white" points="-4,5 -4,-328 318,-328 318,5 -4,5"/>
<!-- 0 -->
<g id="node1" class="node"><title>0</title>
<text text-anchor="middle" x="27" y="-14.3" font-family="Times,serif" font-size="14.00">bit</text>
</g>
<!-- 1 -->
<g id="node2" class="node"><title>1</title>
<text text-anchor="middle" x="27" y="-86.3" font-family="Times,serif" font-size="14.00">&lt;id&gt;</text>
</g>
<!-- 1&#45;&gt;0 -->
<g id="edge2" class="edge"><title>1&#45;&gt;0</title>
<path fill="none" stroke="black" d="M27,-71.6966C27,-63.9827 27,-54.7125 27,-46.1124"/>
<polygon fill="black" stroke="black" points="30.5001,-46.1043 27,-36.1043 23.5001,-46.1044 30.5001,-46.1043"/>
</g>
<!-- 2 -->
<g id="node4" class="node"><title>2</title>
<text text-anchor="middle" x="99" y="-14.3" font-family="Times,serif" font-size="14.00">a</text>
</g>
<!-- 3 -->
<g id="node5" class="node"><title>3</title>
<text text-anchor="middle" x="99" y="-86.3" font-family="Times,serif" font-size="14.00">&lt;id&gt;</text>
</g>
<!-- 3&#45;&gt;2 -->
<g id="edge4" class="edge"><title>3&#45;&gt;2</title>
<path fill="none" stroke="black" d="M99,-71.6966C99,-63.9827 99,-54.7125 99,-46.1124"/>
<polygon fill="black" stroke="black" points="102.5,-46.1043 99,-36.1043 95.5001,-46.1044 102.5,-46.1043"/>
</g>
<!-- 4 -->
<g id="node7" class="node"><title>4</title>
<text text-anchor="middle" x="90" y="-158.3" font-family="Times,serif" font-size="14.00">&lt;parameter&gt;</text>
</g>
<!-- 4&#45;&gt;1 -->
<g id="edge6" class="edge"><title>4&#45;&gt;1</title>
<path fill="none" stroke="black" d="M74.427,-143.697C66.7978,-135.22 57.4772,-124.864 49.1243,-115.583"/>
<polygon fill="black" stroke="black" points="51.6851,-113.196 42.3939,-108.104 46.482,-117.879 51.6851,-113.196"/>
</g>
<!-- 4&#45;&gt;3 -->
<g id="edge8" class="edge"><title>4&#45;&gt;3</title>
<path fill="none" stroke="black" d="M92.2247,-143.697C93.2165,-135.983 94.4084,-126.712 95.5141,-118.112"/>
<polygon fill="black" stroke="black" points="98.997,-118.469 96.8009,-108.104 92.0541,-117.576 98.997,-118.469"/>
</g>
<!-- 5 -->
<g id="node10" class="node"><title>5</title>
<text text-anchor="middle" x="179" y="-14.3" font-family="Times,serif" font-size="14.00">bit</text>
</g>
<!-- 6 -->
<g id="node11" class="node"><title>6</title>
<text text-anchor="middle" x="179" y="-86.3" font-family="Times,serif" font-size="14.00">&lt;id&gt;</text>
</g>
<!-- 6&#45;&gt;5 -->
<g id="edge10" class="edge"><title>6&#45;&gt;5</title>
<path fill="none" stroke="black" d="M179,-71.6966C179,-63.9827 179,-54.7125 179,-46.1124"/>
<polygon fill="black" stroke="black" points="182.5,-46.1043 179,-36.1043 175.5,-46.1044 182.5,-46.1043"/>
</g>
<!-- 7 -->
<g id="node13" class="node"><title>7</title>
<text text-anchor="middle" x="251" y="-14.3" font-family="Times,serif" font-size="14.00">b</text>
</g>
<!-- 8 -->
<g id="node14" class="node"><title>8</title>
<text text-anchor="middle" x="251" y="-86.3" font-family="Times,serif" font-size="14.00">&lt;id&gt;</text>
</g>
<!-- 8&#45;&gt;7 -->
<g id="edge12" class="edge"><title>8&#45;&gt;7</title>
<path fill="none" stroke="black" d="M251,-71.6966C251,-63.9827 251,-54.7125 251,-46.1124"/>
<polygon fill="black" stroke="black" points="254.5,-46.1043 251,-36.1043 247.5,-46.1044 254.5,-46.1043"/>
</g>
<!-- 9 -->
<g id="node16" class="node"><title>9</title>
<text text-anchor="middle" x="196" y="-158.3" font-family="Times,serif" font-size="14.00">&lt;parameter&gt;</text>
</g>
<!-- 9&#45;&gt;6 -->
<g id="edge14" class="edge"><title>9&#45;&gt;6</title>
<path fill="none" stroke="black" d="M191.798,-143.697C189.904,-135.898 187.623,-126.509 185.516,-117.829"/>
<polygon fill="black" stroke="black" points="188.915,-116.996 183.154,-108.104 182.113,-118.648 188.915,-116.996"/>
</g>
<!-- 9&#45;&gt;8 -->
<g id="edge16" class="edge"><title>9&#45;&gt;8</title>
<path fill="none" stroke="black" d="M209.596,-143.697C216.123,-135.389 224.068,-125.277 231.247,-116.141"/>
<polygon fill="black" stroke="black" points="234.135,-118.13 237.561,-108.104 228.631,-113.805 234.135,-118.13"/>
</g>
<!-- 10 -->
<g id="node19" class="node"><title>10</title>
<text text-anchor="middle" x="194" y="-230.3" font-family="Times,serif" font-size="14.00">&lt;parameters&gt;</text>
</g>
<!-- 10&#45;&gt;4 -->
<g id="edge18" class="edge"><title>10&#45;&gt;4</title>
<path fill="none" stroke="black" d="M168.559,-215.876C155.213,-206.893 138.676,-195.763 124.222,-186.034"/>
<polygon fill="black" stroke="black" points="125.789,-182.87 115.539,-180.19 121.881,-188.677 125.789,-182.87"/>
</g>
<!-- 10&#45;&gt;9 -->
<g id="edge20" class="edge"><title>10&#45;&gt;9</title>
<path fill="none" stroke="black" d="M194.494,-215.697C194.715,-207.983 194.98,-198.712 195.225,-190.112"/>
<polygon fill="black" stroke="black" points="198.724,-190.2 195.511,-180.104 191.727,-190 198.724,-190.2"/>
</g>
<!-- 11 -->
<g id="node22" class="node"><title>11</title>
<text text-anchor="middle" x="286" y="-158.3" font-family="Times,serif" font-size="14.00">x</text>
</g>
<!-- 12 -->
<g id="node23" class="node"><title>12</title>
<text text-anchor="middle" x="286" y="-230.3" font-family="Times,serif" font-size="14.00">&lt;id&gt;</text>
</g>
<!-- 12&#45;&gt;11 -->
<g id="edge22" class="edge"><title>12&#45;&gt;11</title>
<path fill="none" stroke="black" d="M286,-215.697C286,-207.983 286,-198.712 286,-190.112"/>
<polygon fill="black" stroke="black" points="289.5,-190.104 286,-180.104 282.5,-190.104 289.5,-190.104"/>
</g>
<!-- 13 -->
<g id="node25" class="node"><title>13</title>
<text text-anchor="middle" x="240" y="-302.3" font-family="Times,serif" font-size="14.00">&lt;abs&gt;</text>
</g>
<!-- 13&#45;&gt;10 -->
<g id="edge24" class="edge"><title>13&#45;&gt;10</title>
<path fill="none" stroke="black" d="M228.629,-287.697C223.282,-279.559 216.796,-269.689 210.889,-260.701"/>
<polygon fill="black" stroke="black" points="213.657,-258.539 205.24,-252.104 207.807,-262.384 213.657,-258.539"/>
</g>
<!-- 13&#45;&gt;12 -->
<g id="edge26" class="edge"><title>13&#45;&gt;12</title>
<path fill="none" stroke="black" d="M251.371,-287.697C256.718,-279.559 263.204,-269.689 269.111,-260.701"/>
<polygon fill="black" stroke="black" points="272.193,-262.384 274.76,-252.104 266.343,-258.539 272.193,-262.384"/>
</g>
</g>
</svg>
