<?xml version="1.0" encoding="UTF-8" standalone="no"?>
<!DOCTYPE svg PUBLIC "-//W3C//DTD SVG 1.1//EN"
 "http://www.w3.org/Graphics/SVG/1.1/DTD/svg11.dtd">
<!-- Generated by graphviz version 2.28.0 (20120716.1447)
 -->
<!-- Title: _anonymous_0 Pages: 1 -->
<svg width="422pt" height="332pt"
 viewBox="0.00 0.00 422.00 332.00" xmlns="http://www.w3.org/2000/svg" xmlns:xlink="http://www.w3.org/1999/xlink">
<g id="graph1" class="graph" transform="scale(1 1) rotate(0) translate(4 328)">
<title>_anonymous_0</title>
<polygon fill="white" stroke="white" points="-4,5 -4,-328 419,-328 419,5 -4,5"/>
<!-- 257 -->
<g id="node1" class="node"><title>257</title>
<text text-anchor="middle" x="243" y="-302.3" font-family="Times,serif" font-size="14.00">&lt;eq&#45;pos&gt;</text>
</g>
<!-- 260 -->
<g id="node2" class="node"><title>260</title>
<text text-anchor="middle" x="171" y="-230.3" font-family="Times,serif" font-size="14.00">&lt;projection&gt;</text>
</g>
<!-- 257&#45;&gt;260 -->
<g id="edge2" class="edge"><title>257&#45;&gt;260</title>
<path fill="none" stroke="black" d="M225.202,-287.697C216.396,-279.135 205.618,-268.656 195.999,-259.304"/>
<polygon fill="black" stroke="black" points="198.203,-256.566 188.593,-252.104 193.323,-261.585 198.203,-256.566"/>
</g>
<!-- 304 -->
<g id="node11" class="node"><title>304</title>
<text text-anchor="middle" x="315" y="-230.3" font-family="Times,serif" font-size="14.00">&lt;call&gt;</text>
</g>
<!-- 257&#45;&gt;304 -->
<g id="edge4" class="edge"><title>257&#45;&gt;304</title>
<path fill="none" stroke="black" d="M260.798,-287.697C269.604,-279.135 280.382,-268.656 290.001,-259.304"/>
<polygon fill="black" stroke="black" points="292.677,-261.585 297.407,-252.104 287.797,-256.566 292.677,-261.585"/>
</g>
<!-- 262 -->
<g id="node3" class="node"><title>262</title>
<text text-anchor="middle" x="53" y="-158.3" font-family="Times,serif" font-size="14.00">&lt;id&gt;</text>
</g>
<!-- 260&#45;&gt;262 -->
<g id="edge6" class="edge"><title>260&#45;&gt;262</title>
<path fill="none" stroke="black" d="M142.134,-215.876C126.245,-206.45 106.37,-194.66 89.4223,-184.606"/>
<polygon fill="black" stroke="black" points="90.7382,-181.318 80.3519,-179.226 87.1668,-187.338 90.7382,-181.318"/>
</g>
<!-- 264 -->
<g id="node5" class="node"><title>264</title>
<text text-anchor="middle" x="171" y="-158.3" font-family="Times,serif" font-size="14.00">&lt;projection&#39;&gt;</text>
</g>
<!-- 260&#45;&gt;264 -->
<g id="edge8" class="edge"><title>260&#45;&gt;264</title>
<path fill="none" stroke="black" d="M171,-215.697C171,-207.983 171,-198.712 171,-190.112"/>
<polygon fill="black" stroke="black" points="174.5,-190.104 171,-180.104 167.5,-190.104 174.5,-190.104"/>
</g>
<!-- 263 -->
<g id="node4" class="node"><title>263</title>
<text text-anchor="middle" x="27" y="-86.3" font-family="Times,serif" font-size="14.00">a</text>
</g>
<!-- 262&#45;&gt;263 -->
<g id="edge10" class="edge"><title>262&#45;&gt;263</title>
<path fill="none" stroke="black" d="M46.573,-143.697C43.6449,-135.813 40.113,-126.304 36.8601,-117.546"/>
<polygon fill="black" stroke="black" points="40.116,-116.26 33.353,-108.104 33.554,-118.697 40.116,-116.26"/>
</g>
<!-- 273 -->
<g id="node6" class="node"><title>273</title>
<text text-anchor="middle" x="99" y="-86.3" font-family="Times,serif" font-size="14.00">&lt;bits&gt;</text>
</g>
<!-- 264&#45;&gt;273 -->
<g id="edge12" class="edge"><title>264&#45;&gt;273</title>
<path fill="none" stroke="black" d="M153.202,-143.697C144.396,-135.135 133.618,-124.656 123.999,-115.304"/>
<polygon fill="black" stroke="black" points="126.203,-112.566 116.593,-108.104 121.323,-117.585 126.203,-112.566"/>
</g>
<!-- 287 -->
<g id="node8" class="node"><title>287</title>
<text text-anchor="middle" x="171" y="-86.3" font-family="Times,serif" font-size="14.00">&lt;bits&gt;</text>
</g>
<!-- 264&#45;&gt;287 -->
<g id="edge14" class="edge"><title>264&#45;&gt;287</title>
<path fill="none" stroke="black" d="M171,-143.697C171,-135.983 171,-126.712 171,-118.112"/>
<polygon fill="black" stroke="black" points="174.5,-118.104 171,-108.104 167.5,-118.104 174.5,-118.104"/>
</g>
<!-- 296 -->
<g id="node10" class="node"><title>296</title>
</g>
<!-- 264&#45;&gt;296 -->
<g id="edge16" class="edge"><title>264&#45;&gt;296</title>
<path fill="none" stroke="black" d="M188.798,-143.697C197.604,-135.135 208.382,-124.656 218.001,-115.304"/>
<polygon fill="black" stroke="black" points="220.677,-117.585 225.407,-108.104 215.797,-112.566 220.677,-117.585"/>
</g>
<!-- 274 -->
<g id="node7" class="node"><title>274</title>
<text text-anchor="middle" x="99" y="-14.3" font-family="Times,serif" font-size="14.00">0</text>
</g>
<!-- 273&#45;&gt;274 -->
<g id="edge18" class="edge"><title>273&#45;&gt;274</title>
<path fill="none" stroke="black" d="M99,-71.6966C99,-63.9827 99,-54.7125 99,-46.1124"/>
<polygon fill="black" stroke="black" points="102.5,-46.1043 99,-36.1043 95.5001,-46.1044 102.5,-46.1043"/>
</g>
<!-- 288 -->
<g id="node9" class="node"><title>288</title>
<text text-anchor="middle" x="171" y="-14.3" font-family="Times,serif" font-size="14.00">1</text>
</g>
<!-- 287&#45;&gt;288 -->
<g id="edge20" class="edge"><title>287&#45;&gt;288</title>
<path fill="none" stroke="black" d="M171,-71.6966C171,-63.9827 171,-54.7125 171,-46.1124"/>
<polygon fill="black" stroke="black" points="174.5,-46.1043 171,-36.1043 167.5,-46.1044 174.5,-46.1043"/>
</g>
<!-- 307 -->
<g id="node12" class="node"><title>307</title>
<text text-anchor="middle" x="315" y="-158.3" font-family="Times,serif" font-size="14.00">&lt;id&gt;</text>
</g>
<!-- 304&#45;&gt;307 -->
<g id="edge22" class="edge"><title>304&#45;&gt;307</title>
<path fill="none" stroke="black" d="M315,-215.697C315,-207.983 315,-198.712 315,-190.112"/>
<polygon fill="black" stroke="black" points="318.5,-190.104 315,-180.104 311.5,-190.104 318.5,-190.104"/>
</g>
<!-- 314 -->
<g id="node14" class="node"><title>314</title>
<text text-anchor="middle" x="387" y="-158.3" font-family="Times,serif" font-size="14.00">&lt;id&gt;</text>
</g>
<!-- 304&#45;&gt;314 -->
<g id="edge24" class="edge"><title>304&#45;&gt;314</title>
<path fill="none" stroke="black" d="M332.798,-215.697C341.604,-207.135 352.382,-196.656 362.001,-187.304"/>
<polygon fill="black" stroke="black" points="364.677,-189.585 369.407,-180.104 359.797,-184.566 364.677,-189.585"/>
</g>
<!-- 308 -->
<g id="node13" class="node"><title>308</title>
<text text-anchor="middle" x="315" y="-86.3" font-family="Times,serif" font-size="14.00">f</text>
</g>
<!-- 307&#45;&gt;308 -->
<g id="edge26" class="edge"><title>307&#45;&gt;308</title>
<path fill="none" stroke="black" d="M315,-143.697C315,-135.983 315,-126.712 315,-118.112"/>
<polygon fill="black" stroke="black" points="318.5,-118.104 315,-108.104 311.5,-118.104 318.5,-118.104"/>
</g>
<!-- 315 -->
<g id="node15" class="node"><title>315</title>
<text text-anchor="middle" x="387" y="-86.3" font-family="Times,serif" font-size="14.00">x</text>
</g>
<!-- 314&#45;&gt;315 -->
<g id="edge28" class="edge"><title>314&#45;&gt;315</title>
<path fill="none" stroke="black" d="M387,-143.697C387,-135.983 387,-126.712 387,-118.112"/>
<polygon fill="black" stroke="black" points="390.5,-118.104 387,-108.104 383.5,-118.104 390.5,-118.104"/>
</g>
</g>
</svg>
