<?xml version="1.0" encoding="UTF-8" standalone="no"?>
<!DOCTYPE svg PUBLIC "-//W3C//DTD SVG 1.1//EN"
 "http://www.w3.org/Graphics/SVG/1.1/DTD/svg11.dtd">
<!-- Generated by graphviz version 2.28.0 (20120716.1447)
 -->
<!-- Title: _anonymous_0 Pages: 1 -->
<svg width="630pt" height="980pt"
 viewBox="0.00 0.00 630.00 980.00" xmlns="http://www.w3.org/2000/svg" xmlns:xlink="http://www.w3.org/1999/xlink">
<g id="graph1" class="graph" transform="scale(1 1) rotate(0) translate(4 976)">
<title>_anonymous_0</title>
<polygon fill="white" stroke="white" points="-4,5 -4,-976 627,-976 627,5 -4,5"/>
<!-- 645 -->
<g id="node1" class="node"><title>645</title>
<text text-anchor="middle" x="386" y="-950.3" font-family="Times,serif" font-size="14.00">&lt;exp&gt;</text>
</g>
<!-- 646 -->
<g id="node2" class="node"><title>646</title>
<text text-anchor="middle" x="386" y="-878.3" font-family="Times,serif" font-size="14.00">&lt;eq&gt;</text>
</g>
<!-- 645&#45;&gt;646 -->
<g id="edge2" class="edge"><title>645&#45;&gt;646</title>
<path fill="none" stroke="black" d="M386,-935.697C386,-927.983 386,-918.712 386,-910.112"/>
<polygon fill="black" stroke="black" points="389.5,-910.104 386,-900.104 382.5,-910.104 389.5,-910.104"/>
</g>
<!-- 647 -->
<g id="node3" class="node"><title>647</title>
<text text-anchor="middle" x="386" y="-806.3" font-family="Times,serif" font-size="14.00">&lt;ty&gt;</text>
</g>
<!-- 646&#45;&gt;647 -->
<g id="edge4" class="edge"><title>646&#45;&gt;647</title>
<path fill="none" stroke="black" d="M386,-863.697C386,-855.983 386,-846.712 386,-838.112"/>
<polygon fill="black" stroke="black" points="389.5,-838.104 386,-828.104 382.5,-838.104 389.5,-838.104"/>
</g>
<!-- 648 -->
<g id="node4" class="node"><title>648</title>
<text text-anchor="middle" x="386" y="-734.3" font-family="Times,serif" font-size="14.00">&lt;call&gt;</text>
</g>
<!-- 647&#45;&gt;648 -->
<g id="edge6" class="edge"><title>647&#45;&gt;648</title>
<path fill="none" stroke="black" d="M386,-791.697C386,-783.983 386,-774.712 386,-766.112"/>
<polygon fill="black" stroke="black" points="389.5,-766.104 386,-756.104 382.5,-766.104 389.5,-766.104"/>
</g>
<!-- 649 -->
<g id="node5" class="node"><title>649</title>
<text text-anchor="middle" x="341" y="-662.3" font-family="Times,serif" font-size="14.00">&lt;projection&gt;</text>
</g>
<!-- 648&#45;&gt;649 -->
<g id="edge8" class="edge"><title>648&#45;&gt;649</title>
<path fill="none" stroke="black" d="M374.876,-719.697C369.645,-711.559 363.3,-701.689 357.522,-692.701"/>
<polygon fill="black" stroke="black" points="360.347,-690.623 351.996,-684.104 354.459,-694.409 360.347,-690.623"/>
</g>
<!-- 686 -->
<g id="node42" class="node"><title>686</title>
<text text-anchor="middle" x="431" y="-662.3" font-family="Times,serif" font-size="14.00">&lt;call&#39;&gt;</text>
</g>
<!-- 648&#45;&gt;686 -->
<g id="edge10" class="edge"><title>648&#45;&gt;686</title>
<path fill="none" stroke="black" d="M397.124,-719.697C402.355,-711.559 408.7,-701.689 414.478,-692.701"/>
<polygon fill="black" stroke="black" points="417.541,-694.409 420.004,-684.104 411.653,-690.623 417.541,-694.409"/>
</g>
<!-- 650 -->
<g id="node6" class="node"><title>650</title>
<text text-anchor="middle" x="179" y="-590.3" font-family="Times,serif" font-size="14.00">&lt;primitive&gt;</text>
</g>
<!-- 649&#45;&gt;650 -->
<g id="edge12" class="edge"><title>649&#45;&gt;650</title>
<path fill="none" stroke="black" d="M301.37,-647.876C279.224,-638.307 251.437,-626.3 227.942,-616.148"/>
<polygon fill="black" stroke="black" points="229.069,-612.822 218.501,-612.068 226.292,-619.248 229.069,-612.822"/>
</g>
<!-- 653 -->
<g id="node9" class="node"><title>653</title>
<text text-anchor="middle" x="341" y="-590.3" font-family="Times,serif" font-size="14.00">&lt;projection&#39;&gt;</text>
</g>
<!-- 649&#45;&gt;653 -->
<g id="edge14" class="edge"><title>649&#45;&gt;653</title>
<path fill="none" stroke="black" d="M341,-647.697C341,-639.983 341,-630.712 341,-622.112"/>
<polygon fill="black" stroke="black" points="344.5,-622.104 341,-612.104 337.5,-622.104 344.5,-622.104"/>
</g>
<!-- 651 -->
<g id="node7" class="node"><title>651</title>
<text text-anchor="middle" x="122" y="-518.3" font-family="Times,serif" font-size="14.00">&lt;id&gt;</text>
</g>
<!-- 650&#45;&gt;651 -->
<g id="edge16" class="edge"><title>650&#45;&gt;651</title>
<path fill="none" stroke="black" d="M164.91,-575.697C158.077,-567.305 149.743,-557.07 142.244,-547.861"/>
<polygon fill="black" stroke="black" points="144.956,-545.649 135.928,-540.104 139.528,-550.069 144.956,-545.649"/>
</g>
<!-- 652 -->
<g id="node8" class="node"><title>652</title>
<text text-anchor="middle" x="121" y="-446.3" font-family="Times,serif" font-size="14.00">@Id a</text>
</g>
<!-- 651&#45;&gt;652 -->
<g id="edge18" class="edge"><title>651&#45;&gt;652</title>
<path fill="none" stroke="black" d="M121.753,-503.697C121.643,-495.983 121.51,-486.712 121.387,-478.112"/>
<polygon fill="black" stroke="black" points="124.887,-478.053 121.244,-468.104 117.888,-478.153 124.887,-478.053"/>
</g>
<!-- 654 -->
<g id="node10" class="node"><title>654</title>
<text text-anchor="middle" x="196" y="-518.3" font-family="Times,serif" font-size="14.00">[</text>
</g>
<!-- 653&#45;&gt;654 -->
<g id="edge20" class="edge"><title>653&#45;&gt;654</title>
<path fill="none" stroke="black" d="M305.529,-575.876C283.374,-565.18 254.912,-551.44 232.555,-540.647"/>
<polygon fill="black" stroke="black" points="233.911,-537.415 223.384,-536.22 230.868,-543.719 233.911,-537.415"/>
</g>
<!-- 656 -->
<g id="node12" class="node"><title>656</title>
<text text-anchor="middle" x="269" y="-518.3" font-family="Times,serif" font-size="14.00">&lt;exp&gt;</text>
</g>
<!-- 653&#45;&gt;656 -->
<g id="edge22" class="edge"><title>653&#45;&gt;656</title>
<path fill="none" stroke="black" d="M323.202,-575.697C314.396,-567.135 303.618,-556.656 293.999,-547.304"/>
<polygon fill="black" stroke="black" points="296.203,-544.566 286.593,-540.104 291.323,-549.585 296.203,-544.566"/>
</g>
<!-- 668 -->
<g id="node24" class="node"><title>668</title>
<text text-anchor="middle" x="341" y="-518.3" font-family="Times,serif" font-size="14.00">:</text>
</g>
<!-- 653&#45;&gt;668 -->
<g id="edge24" class="edge"><title>653&#45;&gt;668</title>
<path fill="none" stroke="black" d="M341,-575.697C341,-567.983 341,-558.712 341,-550.112"/>
<polygon fill="black" stroke="black" points="344.5,-550.104 341,-540.104 337.5,-550.104 344.5,-550.104"/>
</g>
<!-- 670 -->
<g id="node26" class="node"><title>670</title>
<text text-anchor="middle" x="413" y="-518.3" font-family="Times,serif" font-size="14.00">&lt;exp&gt;</text>
</g>
<!-- 653&#45;&gt;670 -->
<g id="edge26" class="edge"><title>653&#45;&gt;670</title>
<path fill="none" stroke="black" d="M358.798,-575.697C367.604,-567.135 378.382,-556.656 388.001,-547.304"/>
<polygon fill="black" stroke="black" points="390.677,-549.585 395.407,-540.104 385.797,-544.566 390.677,-549.585"/>
</g>
<!-- 682 -->
<g id="node38" class="node"><title>682</title>
<text text-anchor="middle" x="485" y="-518.3" font-family="Times,serif" font-size="14.00">]</text>
</g>
<!-- 653&#45;&gt;682 -->
<g id="edge28" class="edge"><title>653&#45;&gt;682</title>
<path fill="none" stroke="black" d="M376.226,-575.876C398.229,-565.18 426.494,-551.44 448.697,-540.647"/>
<polygon fill="black" stroke="black" points="450.341,-543.74 457.805,-536.22 447.281,-537.444 450.341,-543.74"/>
</g>
<!-- 684 -->
<g id="node40" class="node"><title>684</title>
<text text-anchor="middle" x="576" y="-518.3" font-family="Times,serif" font-size="14.00">&lt;projection&#39;&gt;</text>
</g>
<!-- 653&#45;&gt;684 -->
<g id="edge30" class="edge"><title>653&#45;&gt;684</title>
<path fill="none" stroke="black" d="M387.194,-578.651C390.172,-577.748 393.127,-576.858 396,-576 448.477,-560.335 463.989,-556.884 520.053,-540.253"/>
<polygon fill="black" stroke="black" points="521.221,-543.557 529.806,-537.349 519.223,-536.849 521.221,-543.557"/>
</g>
<!-- 655 -->
<g id="node11" class="node"><title>655</title>
<text text-anchor="middle" x="195" y="-446.3" font-family="Times,serif" font-size="14.00">@Kw [</text>
</g>
<!-- 654&#45;&gt;655 -->
<g id="edge32" class="edge"><title>654&#45;&gt;655</title>
<path fill="none" stroke="black" d="M195.753,-503.697C195.643,-495.983 195.51,-486.712 195.387,-478.112"/>
<polygon fill="black" stroke="black" points="198.887,-478.053 195.244,-468.104 191.888,-478.153 198.887,-478.053"/>
</g>
<!-- 657 -->
<g id="node13" class="node"><title>657</title>
<text text-anchor="middle" x="269" y="-446.3" font-family="Times,serif" font-size="14.00">&lt;eq&gt;</text>
</g>
<!-- 656&#45;&gt;657 -->
<g id="edge34" class="edge"><title>656&#45;&gt;657</title>
<path fill="none" stroke="black" d="M269,-503.697C269,-495.983 269,-486.712 269,-478.112"/>
<polygon fill="black" stroke="black" points="272.5,-478.104 269,-468.104 265.5,-478.104 272.5,-478.104"/>
</g>
<!-- 658 -->
<g id="node14" class="node"><title>658</title>
<text text-anchor="middle" x="247" y="-374.3" font-family="Times,serif" font-size="14.00">&lt;ty&gt;</text>
</g>
<!-- 657&#45;&gt;658 -->
<g id="edge36" class="edge"><title>657&#45;&gt;658</title>
<path fill="none" stroke="black" d="M263.562,-431.697C261.111,-423.898 258.16,-414.509 255.432,-405.829"/>
<polygon fill="black" stroke="black" points="258.713,-404.595 252.376,-396.104 252.035,-406.694 258.713,-404.595"/>
</g>
<!-- 659 -->
<g id="node15" class="node"><title>659</title>
<text text-anchor="middle" x="236" y="-302.3" font-family="Times,serif" font-size="14.00">&lt;call&gt;</text>
</g>
<!-- 658&#45;&gt;659 -->
<g id="edge38" class="edge"><title>658&#45;&gt;659</title>
<path fill="none" stroke="black" d="M244.281,-359.697C243.069,-351.983 241.612,-342.712 240.261,-334.112"/>
<polygon fill="black" stroke="black" points="243.698,-333.44 238.688,-324.104 236.783,-334.526 243.698,-333.44"/>
</g>
<!-- 660 -->
<g id="node16" class="node"><title>660</title>
<text text-anchor="middle" x="145" y="-230.3" font-family="Times,serif" font-size="14.00">&lt;projection&gt;</text>
</g>
<!-- 659&#45;&gt;660 -->
<g id="edge40" class="edge"><title>659&#45;&gt;660</title>
<path fill="none" stroke="black" d="M213.506,-287.697C202.045,-278.881 187.942,-268.032 175.516,-258.474"/>
<polygon fill="black" stroke="black" points="177.296,-255.427 167.236,-252.104 173.028,-260.976 177.296,-255.427"/>
</g>
<!-- 666 -->
<g id="node22" class="node"><title>666</title>
<text text-anchor="middle" x="236" y="-230.3" font-family="Times,serif" font-size="14.00">&lt;call&#39;&gt;</text>
</g>
<!-- 659&#45;&gt;666 -->
<g id="edge42" class="edge"><title>659&#45;&gt;666</title>
<path fill="none" stroke="black" d="M236,-287.697C236,-279.983 236,-270.712 236,-262.112"/>
<polygon fill="black" stroke="black" points="239.5,-262.104 236,-252.104 232.5,-262.104 239.5,-262.104"/>
</g>
<!-- 661 -->
<g id="node17" class="node"><title>661</title>
<text text-anchor="middle" x="40" y="-158.3" font-family="Times,serif" font-size="14.00">&lt;primitive&gt;</text>
</g>
<!-- 660&#45;&gt;661 -->
<g id="edge44" class="edge"><title>660&#45;&gt;661</title>
<path fill="none" stroke="black" d="M119.314,-215.876C105.712,-206.808 88.8285,-195.552 74.1388,-185.759"/>
<polygon fill="black" stroke="black" points="76.0466,-182.825 65.7846,-180.19 72.1637,-188.649 76.0466,-182.825"/>
</g>
<!-- 664 -->
<g id="node20" class="node"><title>664</title>
<text text-anchor="middle" x="145" y="-158.3" font-family="Times,serif" font-size="14.00">&lt;projection&#39;&gt;</text>
</g>
<!-- 660&#45;&gt;664 -->
<g id="edge46" class="edge"><title>660&#45;&gt;664</title>
<path fill="none" stroke="black" d="M145,-215.697C145,-207.983 145,-198.712 145,-190.112"/>
<polygon fill="black" stroke="black" points="148.5,-190.104 145,-180.104 141.5,-190.104 148.5,-190.104"/>
</g>
<!-- 662 -->
<g id="node18" class="node"><title>662</title>
<text text-anchor="middle" x="40" y="-86.3" font-family="Times,serif" font-size="14.00">&lt;bits&gt;</text>
</g>
<!-- 661&#45;&gt;662 -->
<g id="edge48" class="edge"><title>661&#45;&gt;662</title>
<path fill="none" stroke="black" d="M40,-143.697C40,-135.983 40,-126.712 40,-118.112"/>
<polygon fill="black" stroke="black" points="43.5001,-118.104 40,-108.104 36.5001,-118.104 43.5001,-118.104"/>
</g>
<!-- 663 -->
<g id="node19" class="node"><title>663</title>
<text text-anchor="middle" x="40" y="-14.3" font-family="Times,serif" font-size="14.00">@Bt 0</text>
</g>
<!-- 662&#45;&gt;663 -->
<g id="edge50" class="edge"><title>662&#45;&gt;663</title>
<path fill="none" stroke="black" d="M40,-71.6966C40,-63.9827 40,-54.7125 40,-46.1124"/>
<polygon fill="black" stroke="black" points="43.5001,-46.1043 40,-36.1043 36.5001,-46.1044 43.5001,-46.1043"/>
</g>
<!-- 665 -->
<g id="node21" class="node"><title>665</title>
</g>
<!-- 664&#45;&gt;665 -->
<g id="edge52" class="edge"><title>664&#45;&gt;665</title>
<path fill="none" stroke="black" d="M145,-143.697C145,-135.983 145,-126.712 145,-118.112"/>
<polygon fill="black" stroke="black" points="148.5,-118.104 145,-108.104 141.5,-118.104 148.5,-118.104"/>
</g>
<!-- 667 -->
<g id="node23" class="node"><title>667</title>
</g>
<!-- 666&#45;&gt;667 -->
<g id="edge54" class="edge"><title>666&#45;&gt;667</title>
<path fill="none" stroke="black" d="M236,-215.697C236,-207.983 236,-198.712 236,-190.112"/>
<polygon fill="black" stroke="black" points="239.5,-190.104 236,-180.104 232.5,-190.104 239.5,-190.104"/>
</g>
<!-- 669 -->
<g id="node25" class="node"><title>669</title>
<text text-anchor="middle" x="342" y="-446.3" font-family="Times,serif" font-size="14.00">@Kw :</text>
</g>
<!-- 668&#45;&gt;669 -->
<g id="edge56" class="edge"><title>668&#45;&gt;669</title>
<path fill="none" stroke="black" d="M341.247,-503.697C341.357,-495.983 341.49,-486.712 341.613,-478.112"/>
<polygon fill="black" stroke="black" points="345.112,-478.153 341.756,-468.104 338.113,-478.053 345.112,-478.153"/>
</g>
<!-- 671 -->
<g id="node27" class="node"><title>671</title>
<text text-anchor="middle" x="415" y="-446.3" font-family="Times,serif" font-size="14.00">&lt;eq&gt;</text>
</g>
<!-- 670&#45;&gt;671 -->
<g id="edge58" class="edge"><title>670&#45;&gt;671</title>
<path fill="none" stroke="black" d="M413.494,-503.697C413.715,-495.983 413.98,-486.712 414.225,-478.112"/>
<polygon fill="black" stroke="black" points="417.724,-478.2 414.511,-468.104 410.727,-478 417.724,-478.2"/>
</g>
<!-- 672 -->
<g id="node28" class="node"><title>672</title>
<text text-anchor="middle" x="421" y="-374.3" font-family="Times,serif" font-size="14.00">&lt;ty&gt;</text>
</g>
<!-- 671&#45;&gt;672 -->
<g id="edge60" class="edge"><title>671&#45;&gt;672</title>
<path fill="none" stroke="black" d="M416.483,-431.697C417.144,-423.983 417.939,-414.712 418.676,-406.112"/>
<polygon fill="black" stroke="black" points="422.167,-406.367 419.534,-396.104 415.193,-405.769 422.167,-406.367"/>
</g>
<!-- 673 -->
<g id="node29" class="node"><title>673</title>
<text text-anchor="middle" x="424" y="-302.3" font-family="Times,serif" font-size="14.00">&lt;call&gt;</text>
</g>
<!-- 672&#45;&gt;673 -->
<g id="edge62" class="edge"><title>672&#45;&gt;673</title>
<path fill="none" stroke="black" d="M421.742,-359.697C422.072,-351.983 422.469,-342.712 422.838,-334.112"/>
<polygon fill="black" stroke="black" points="426.335,-334.245 423.267,-324.104 419.342,-333.945 426.335,-334.245"/>
</g>
<!-- 674 -->
<g id="node30" class="node"><title>674</title>
<text text-anchor="middle" x="424" y="-230.3" font-family="Times,serif" font-size="14.00">&lt;projection&gt;</text>
</g>
<!-- 673&#45;&gt;674 -->
<g id="edge64" class="edge"><title>673&#45;&gt;674</title>
<path fill="none" stroke="black" d="M424,-287.697C424,-279.983 424,-270.712 424,-262.112"/>
<polygon fill="black" stroke="black" points="427.5,-262.104 424,-252.104 420.5,-262.104 427.5,-262.104"/>
</g>
<!-- 680 -->
<g id="node36" class="node"><title>680</title>
<text text-anchor="middle" x="516" y="-230.3" font-family="Times,serif" font-size="14.00">&lt;call&#39;&gt;</text>
</g>
<!-- 673&#45;&gt;680 -->
<g id="edge66" class="edge"><title>673&#45;&gt;680</title>
<path fill="none" stroke="black" d="M446.742,-287.697C458.44,-278.796 472.861,-267.823 485.51,-258.199"/>
<polygon fill="black" stroke="black" points="487.681,-260.945 493.52,-252.104 483.442,-255.374 487.681,-260.945"/>
</g>
<!-- 675 -->
<g id="node31" class="node"><title>675</title>
<text text-anchor="middle" x="322" y="-158.3" font-family="Times,serif" font-size="14.00">&lt;primitive&gt;</text>
</g>
<!-- 674&#45;&gt;675 -->
<g id="edge68" class="edge"><title>674&#45;&gt;675</title>
<path fill="none" stroke="black" d="M399.048,-215.876C385.958,-206.893 369.74,-195.763 355.564,-186.034"/>
<polygon fill="black" stroke="black" points="357.274,-182.962 347.048,-180.19 353.313,-188.734 357.274,-182.962"/>
</g>
<!-- 678 -->
<g id="node34" class="node"><title>678</title>
<text text-anchor="middle" x="427" y="-158.3" font-family="Times,serif" font-size="14.00">&lt;projection&#39;&gt;</text>
</g>
<!-- 674&#45;&gt;678 -->
<g id="edge70" class="edge"><title>674&#45;&gt;678</title>
<path fill="none" stroke="black" d="M424.742,-215.697C425.072,-207.983 425.469,-198.712 425.838,-190.112"/>
<polygon fill="black" stroke="black" points="429.335,-190.245 426.267,-180.104 422.342,-189.945 429.335,-190.245"/>
</g>
<!-- 676 -->
<g id="node32" class="node"><title>676</title>
<text text-anchor="middle" x="322" y="-86.3" font-family="Times,serif" font-size="14.00">&lt;bits&gt;</text>
</g>
<!-- 675&#45;&gt;676 -->
<g id="edge72" class="edge"><title>675&#45;&gt;676</title>
<path fill="none" stroke="black" d="M322,-143.697C322,-135.983 322,-126.712 322,-118.112"/>
<polygon fill="black" stroke="black" points="325.5,-118.104 322,-108.104 318.5,-118.104 325.5,-118.104"/>
</g>
<!-- 677 -->
<g id="node33" class="node"><title>677</title>
<text text-anchor="middle" x="322" y="-14.3" font-family="Times,serif" font-size="14.00">@Bt 1</text>
</g>
<!-- 676&#45;&gt;677 -->
<g id="edge74" class="edge"><title>676&#45;&gt;677</title>
<path fill="none" stroke="black" d="M322,-71.6966C322,-63.9827 322,-54.7125 322,-46.1124"/>
<polygon fill="black" stroke="black" points="325.5,-46.1043 322,-36.1043 318.5,-46.1044 325.5,-46.1043"/>
</g>
<!-- 679 -->
<g id="node35" class="node"><title>679</title>
</g>
<!-- 678&#45;&gt;679 -->
<g id="edge76" class="edge"><title>678&#45;&gt;679</title>
<path fill="none" stroke="black" d="M427,-143.697C427,-135.983 427,-126.712 427,-118.112"/>
<polygon fill="black" stroke="black" points="430.5,-118.104 427,-108.104 423.5,-118.104 430.5,-118.104"/>
</g>
<!-- 681 -->
<g id="node37" class="node"><title>681</title>
</g>
<!-- 680&#45;&gt;681 -->
<g id="edge78" class="edge"><title>680&#45;&gt;681</title>
<path fill="none" stroke="black" d="M516.494,-215.697C516.715,-207.983 516.98,-198.712 517.225,-190.112"/>
<polygon fill="black" stroke="black" points="520.724,-190.2 517.511,-180.104 513.727,-190 520.724,-190.2"/>
</g>
<!-- 683 -->
<g id="node39" class="node"><title>683</title>
<text text-anchor="middle" x="489" y="-446.3" font-family="Times,serif" font-size="14.00">@Kw ]</text>
</g>
<!-- 682&#45;&gt;683 -->
<g id="edge80" class="edge"><title>682&#45;&gt;683</title>
<path fill="none" stroke="black" d="M485.989,-503.697C486.43,-495.983 486.959,-486.712 487.451,-478.112"/>
<polygon fill="black" stroke="black" points="490.946,-478.288 488.023,-468.104 483.958,-477.888 490.946,-478.288"/>
</g>
<!-- 685 -->
<g id="node41" class="node"><title>685</title>
</g>
<!-- 684&#45;&gt;685 -->
<g id="edge82" class="edge"><title>684&#45;&gt;685</title>
<path fill="none" stroke="black" d="M576,-503.697C576,-495.983 576,-486.712 576,-478.112"/>
<polygon fill="black" stroke="black" points="579.5,-478.104 576,-468.104 572.5,-478.104 579.5,-478.104"/>
</g>
<!-- 687 -->
<g id="node43" class="node"><title>687</title>
</g>
<!-- 686&#45;&gt;687 -->
<g id="edge84" class="edge"><title>686&#45;&gt;687</title>
<path fill="none" stroke="black" d="M431.247,-647.697C431.357,-639.983 431.49,-630.712 431.613,-622.112"/>
<polygon fill="black" stroke="black" points="435.112,-622.153 431.756,-612.104 428.113,-622.053 435.112,-622.153"/>
</g>
</g>
</svg>
