<?xml version="1.0" encoding="UTF-8" standalone="no"?>
<!DOCTYPE svg PUBLIC "-//W3C//DTD SVG 1.1//EN"
 "http://www.w3.org/Graphics/SVG/1.1/DTD/svg11.dtd">
<!-- Generated by graphviz version 2.28.0 (20120716.1447)
 -->
<!-- Title: _anonymous_0 Pages: 1 -->
<svg width="1061pt" height="980pt"
 viewBox="0.00 0.00 1061.00 980.00" xmlns="http://www.w3.org/2000/svg" xmlns:xlink="http://www.w3.org/1999/xlink">
<g id="graph1" class="graph" transform="scale(1 1) rotate(0) translate(4 976)">
<title>_anonymous_0</title>
<polygon fill="white" stroke="white" points="-4,5 -4,-976 1058,-976 1058,5 -4,5"/>
<!-- 688 -->
<g id="node1" class="node"><title>688</title>
<text text-anchor="middle" x="595" y="-950.3" font-family="Times,serif" font-size="14.00">&lt;exp&gt;</text>
</g>
<!-- 689 -->
<g id="node2" class="node"><title>689</title>
<text text-anchor="middle" x="595" y="-878.3" font-family="Times,serif" font-size="14.00">&lt;eq&gt;</text>
</g>
<!-- 688&#45;&gt;689 -->
<g id="edge2" class="edge"><title>688&#45;&gt;689</title>
<path fill="none" stroke="black" d="M595,-935.697C595,-927.983 595,-918.712 595,-910.112"/>
<polygon fill="black" stroke="black" points="598.5,-910.104 595,-900.104 591.5,-910.104 598.5,-910.104"/>
</g>
<!-- 690 -->
<g id="node3" class="node"><title>690</title>
<text text-anchor="middle" x="513" y="-806.3" font-family="Times,serif" font-size="14.00">&lt;ty&gt;</text>
</g>
<!-- 689&#45;&gt;690 -->
<g id="edge4" class="edge"><title>689&#45;&gt;690</title>
<path fill="none" stroke="black" d="M574.73,-863.697C564.502,-854.965 551.939,-844.24 540.822,-834.75"/>
<polygon fill="black" stroke="black" points="542.915,-831.935 533.037,-828.104 538.37,-837.259 542.915,-831.935"/>
</g>
<!-- 731 -->
<g id="node44" class="node"><title>731</title>
<text text-anchor="middle" x="595" y="-806.3" font-family="Times,serif" font-size="14.00">=</text>
</g>
<!-- 689&#45;&gt;731 -->
<g id="edge6" class="edge"><title>689&#45;&gt;731</title>
<path fill="none" stroke="black" d="M595,-863.697C595,-855.983 595,-846.712 595,-838.112"/>
<polygon fill="black" stroke="black" points="598.5,-838.104 595,-828.104 591.5,-838.104 598.5,-838.104"/>
</g>
<!-- 733 -->
<g id="node46" class="node"><title>733</title>
<text text-anchor="middle" x="673" y="-806.3" font-family="Times,serif" font-size="14.00">&lt;exp&gt;</text>
</g>
<!-- 689&#45;&gt;733 -->
<g id="edge8" class="edge"><title>689&#45;&gt;733</title>
<path fill="none" stroke="black" d="M614.281,-863.697C623.915,-855.05 635.729,-844.449 646.227,-835.027"/>
<polygon fill="black" stroke="black" points="648.836,-837.388 653.941,-828.104 644.161,-832.179 648.836,-837.388"/>
</g>
<!-- 691 -->
<g id="node4" class="node"><title>691</title>
<text text-anchor="middle" x="502" y="-734.3" font-family="Times,serif" font-size="14.00">&lt;call&gt;</text>
</g>
<!-- 690&#45;&gt;691 -->
<g id="edge10" class="edge"><title>690&#45;&gt;691</title>
<path fill="none" stroke="black" d="M510.281,-791.697C509.069,-783.983 507.612,-774.712 506.261,-766.112"/>
<polygon fill="black" stroke="black" points="509.698,-765.44 504.688,-756.104 502.783,-766.526 509.698,-765.44"/>
</g>
<!-- 692 -->
<g id="node5" class="node"><title>692</title>
<text text-anchor="middle" x="378" y="-662.3" font-family="Times,serif" font-size="14.00">&lt;projection&gt;</text>
</g>
<!-- 691&#45;&gt;692 -->
<g id="edge12" class="edge"><title>691&#45;&gt;692</title>
<path fill="none" stroke="black" d="M474.788,-721.638C457.878,-712.092 435.864,-699.665 417.104,-689.075"/>
<polygon fill="black" stroke="black" points="418.621,-685.912 408.193,-684.044 415.18,-692.008 418.621,-685.912"/>
</g>
<!-- 729 -->
<g id="node42" class="node"><title>729</title>
<text text-anchor="middle" x="502" y="-662.3" font-family="Times,serif" font-size="14.00">&lt;call&#39;&gt;</text>
</g>
<!-- 691&#45;&gt;729 -->
<g id="edge14" class="edge"><title>691&#45;&gt;729</title>
<path fill="none" stroke="black" d="M502,-719.697C502,-711.983 502,-702.712 502,-694.112"/>
<polygon fill="black" stroke="black" points="505.5,-694.104 502,-684.104 498.5,-694.104 505.5,-694.104"/>
</g>
<!-- 693 -->
<g id="node6" class="node"><title>693</title>
<text text-anchor="middle" x="180" y="-590.3" font-family="Times,serif" font-size="14.00">&lt;primitive&gt;</text>
</g>
<!-- 692&#45;&gt;693 -->
<g id="edge16" class="edge"><title>692&#45;&gt;693</title>
<path fill="none" stroke="black" d="M333.565,-649.291C302.876,-638.441 262.015,-623.995 230.157,-612.732"/>
<polygon fill="black" stroke="black" points="231.175,-609.38 220.581,-609.347 228.842,-615.98 231.175,-609.38"/>
</g>
<!-- 696 -->
<g id="node9" class="node"><title>696</title>
<text text-anchor="middle" x="378" y="-590.3" font-family="Times,serif" font-size="14.00">&lt;projection&#39;&gt;</text>
</g>
<!-- 692&#45;&gt;696 -->
<g id="edge18" class="edge"><title>692&#45;&gt;696</title>
<path fill="none" stroke="black" d="M378,-647.697C378,-639.983 378,-630.712 378,-622.112"/>
<polygon fill="black" stroke="black" points="381.5,-622.104 378,-612.104 374.5,-622.104 381.5,-622.104"/>
</g>
<!-- 694 -->
<g id="node7" class="node"><title>694</title>
<text text-anchor="middle" x="123" y="-518.3" font-family="Times,serif" font-size="14.00">&lt;id&gt;</text>
</g>
<!-- 693&#45;&gt;694 -->
<g id="edge20" class="edge"><title>693&#45;&gt;694</title>
<path fill="none" stroke="black" d="M165.91,-575.697C159.077,-567.305 150.743,-557.07 143.244,-547.861"/>
<polygon fill="black" stroke="black" points="145.956,-545.649 136.928,-540.104 140.528,-550.069 145.956,-545.649"/>
</g>
<!-- 695 -->
<g id="node8" class="node"><title>695</title>
<text text-anchor="middle" x="121" y="-446.3" font-family="Times,serif" font-size="14.00">@Id a</text>
</g>
<!-- 694&#45;&gt;695 -->
<g id="edge22" class="edge"><title>694&#45;&gt;695</title>
<path fill="none" stroke="black" d="M122.506,-503.697C122.285,-495.983 122.02,-486.712 121.775,-478.112"/>
<polygon fill="black" stroke="black" points="125.273,-478 121.489,-468.104 118.276,-478.2 125.273,-478"/>
</g>
<!-- 697 -->
<g id="node10" class="node"><title>697</title>
<text text-anchor="middle" x="196" y="-518.3" font-family="Times,serif" font-size="14.00">[</text>
</g>
<!-- 696&#45;&gt;697 -->
<g id="edge24" class="edge"><title>696&#45;&gt;697</title>
<path fill="none" stroke="black" d="M331.924,-577.222C303.244,-567.139 265.715,-553.469 233,-540 232.902,-539.96 232.804,-539.919 232.705,-539.879"/>
<polygon fill="black" stroke="black" points="233.941,-536.6 223.371,-535.873 231.181,-543.033 233.941,-536.6"/>
</g>
<!-- 699 -->
<g id="node12" class="node"><title>699</title>
<text text-anchor="middle" x="269" y="-518.3" font-family="Times,serif" font-size="14.00">&lt;exp&gt;</text>
</g>
<!-- 696&#45;&gt;699 -->
<g id="edge26" class="edge"><title>696&#45;&gt;699</title>
<path fill="none" stroke="black" d="M351.336,-575.876C337.216,-566.808 319.689,-555.552 304.439,-545.759"/>
<polygon fill="black" stroke="black" points="306.073,-542.648 295.767,-540.19 302.29,-548.538 306.073,-542.648"/>
</g>
<!-- 711 -->
<g id="node24" class="node"><title>711</title>
<text text-anchor="middle" x="342" y="-518.3" font-family="Times,serif" font-size="14.00">:</text>
</g>
<!-- 696&#45;&gt;711 -->
<g id="edge28" class="edge"><title>696&#45;&gt;711</title>
<path fill="none" stroke="black" d="M369.101,-575.697C365.003,-567.728 360.051,-558.1 355.507,-549.264"/>
<polygon fill="black" stroke="black" points="358.483,-547.396 350.797,-540.104 352.258,-550.598 358.483,-547.396"/>
</g>
<!-- 713 -->
<g id="node26" class="node"><title>713</title>
<text text-anchor="middle" x="414" y="-518.3" font-family="Times,serif" font-size="14.00">&lt;exp&gt;</text>
</g>
<!-- 696&#45;&gt;713 -->
<g id="edge30" class="edge"><title>696&#45;&gt;713</title>
<path fill="none" stroke="black" d="M386.899,-575.697C390.997,-567.728 395.949,-558.1 400.493,-549.264"/>
<polygon fill="black" stroke="black" points="403.742,-550.598 405.203,-540.104 397.517,-547.396 403.742,-550.598"/>
</g>
<!-- 725 -->
<g id="node38" class="node"><title>725</title>
<text text-anchor="middle" x="486" y="-518.3" font-family="Times,serif" font-size="14.00">]</text>
</g>
<!-- 696&#45;&gt;725 -->
<g id="edge32" class="edge"><title>696&#45;&gt;725</title>
<path fill="none" stroke="black" d="M404.42,-575.876C418.41,-566.808 435.776,-555.552 450.886,-545.759"/>
<polygon fill="black" stroke="black" points="452.991,-548.566 459.479,-540.19 449.183,-542.692 452.991,-548.566"/>
</g>
<!-- 727 -->
<g id="node40" class="node"><title>727</title>
<text text-anchor="middle" x="577" y="-518.3" font-family="Times,serif" font-size="14.00">&lt;projection&#39;&gt;</text>
</g>
<!-- 696&#45;&gt;727 -->
<g id="edge34" class="edge"><title>696&#45;&gt;727</title>
<path fill="none" stroke="black" d="M424.155,-576.765C453.061,-566.597 490.494,-553.429 521.081,-542.67"/>
<polygon fill="black" stroke="black" points="522.479,-545.888 530.751,-539.268 520.156,-539.285 522.479,-545.888"/>
</g>
<!-- 698 -->
<g id="node11" class="node"><title>698</title>
<text text-anchor="middle" x="195" y="-446.3" font-family="Times,serif" font-size="14.00">@Kw [</text>
</g>
<!-- 697&#45;&gt;698 -->
<g id="edge36" class="edge"><title>697&#45;&gt;698</title>
<path fill="none" stroke="black" d="M195.753,-503.697C195.643,-495.983 195.51,-486.712 195.387,-478.112"/>
<polygon fill="black" stroke="black" points="198.887,-478.053 195.244,-468.104 191.888,-478.153 198.887,-478.053"/>
</g>
<!-- 700 -->
<g id="node13" class="node"><title>700</title>
<text text-anchor="middle" x="269" y="-446.3" font-family="Times,serif" font-size="14.00">&lt;eq&gt;</text>
</g>
<!-- 699&#45;&gt;700 -->
<g id="edge38" class="edge"><title>699&#45;&gt;700</title>
<path fill="none" stroke="black" d="M269,-503.697C269,-495.983 269,-486.712 269,-478.112"/>
<polygon fill="black" stroke="black" points="272.5,-478.104 269,-468.104 265.5,-478.104 272.5,-478.104"/>
</g>
<!-- 701 -->
<g id="node14" class="node"><title>701</title>
<text text-anchor="middle" x="247" y="-374.3" font-family="Times,serif" font-size="14.00">&lt;ty&gt;</text>
</g>
<!-- 700&#45;&gt;701 -->
<g id="edge40" class="edge"><title>700&#45;&gt;701</title>
<path fill="none" stroke="black" d="M263.562,-431.697C261.111,-423.898 258.16,-414.509 255.432,-405.829"/>
<polygon fill="black" stroke="black" points="258.713,-404.595 252.376,-396.104 252.035,-406.694 258.713,-404.595"/>
</g>
<!-- 702 -->
<g id="node15" class="node"><title>702</title>
<text text-anchor="middle" x="236" y="-302.3" font-family="Times,serif" font-size="14.00">&lt;call&gt;</text>
</g>
<!-- 701&#45;&gt;702 -->
<g id="edge42" class="edge"><title>701&#45;&gt;702</title>
<path fill="none" stroke="black" d="M244.281,-359.697C243.069,-351.983 241.612,-342.712 240.261,-334.112"/>
<polygon fill="black" stroke="black" points="243.698,-333.44 238.688,-324.104 236.783,-334.526 243.698,-333.44"/>
</g>
<!-- 703 -->
<g id="node16" class="node"><title>703</title>
<text text-anchor="middle" x="145" y="-230.3" font-family="Times,serif" font-size="14.00">&lt;projection&gt;</text>
</g>
<!-- 702&#45;&gt;703 -->
<g id="edge44" class="edge"><title>702&#45;&gt;703</title>
<path fill="none" stroke="black" d="M213.506,-287.697C202.045,-278.881 187.942,-268.032 175.516,-258.474"/>
<polygon fill="black" stroke="black" points="177.296,-255.427 167.236,-252.104 173.028,-260.976 177.296,-255.427"/>
</g>
<!-- 709 -->
<g id="node22" class="node"><title>709</title>
<text text-anchor="middle" x="236" y="-230.3" font-family="Times,serif" font-size="14.00">&lt;call&#39;&gt;</text>
</g>
<!-- 702&#45;&gt;709 -->
<g id="edge46" class="edge"><title>702&#45;&gt;709</title>
<path fill="none" stroke="black" d="M236,-287.697C236,-279.983 236,-270.712 236,-262.112"/>
<polygon fill="black" stroke="black" points="239.5,-262.104 236,-252.104 232.5,-262.104 239.5,-262.104"/>
</g>
<!-- 704 -->
<g id="node17" class="node"><title>704</title>
<text text-anchor="middle" x="40" y="-158.3" font-family="Times,serif" font-size="14.00">&lt;primitive&gt;</text>
</g>
<!-- 703&#45;&gt;704 -->
<g id="edge48" class="edge"><title>703&#45;&gt;704</title>
<path fill="none" stroke="black" d="M119.314,-215.876C105.712,-206.808 88.8285,-195.552 74.1388,-185.759"/>
<polygon fill="black" stroke="black" points="76.0466,-182.825 65.7846,-180.19 72.1637,-188.649 76.0466,-182.825"/>
</g>
<!-- 707 -->
<g id="node20" class="node"><title>707</title>
<text text-anchor="middle" x="145" y="-158.3" font-family="Times,serif" font-size="14.00">&lt;projection&#39;&gt;</text>
</g>
<!-- 703&#45;&gt;707 -->
<g id="edge50" class="edge"><title>703&#45;&gt;707</title>
<path fill="none" stroke="black" d="M145,-215.697C145,-207.983 145,-198.712 145,-190.112"/>
<polygon fill="black" stroke="black" points="148.5,-190.104 145,-180.104 141.5,-190.104 148.5,-190.104"/>
</g>
<!-- 705 -->
<g id="node18" class="node"><title>705</title>
<text text-anchor="middle" x="40" y="-86.3" font-family="Times,serif" font-size="14.00">&lt;bits&gt;</text>
</g>
<!-- 704&#45;&gt;705 -->
<g id="edge52" class="edge"><title>704&#45;&gt;705</title>
<path fill="none" stroke="black" d="M40,-143.697C40,-135.983 40,-126.712 40,-118.112"/>
<polygon fill="black" stroke="black" points="43.5001,-118.104 40,-108.104 36.5001,-118.104 43.5001,-118.104"/>
</g>
<!-- 706 -->
<g id="node19" class="node"><title>706</title>
<text text-anchor="middle" x="40" y="-14.3" font-family="Times,serif" font-size="14.00">@Bt 0</text>
</g>
<!-- 705&#45;&gt;706 -->
<g id="edge54" class="edge"><title>705&#45;&gt;706</title>
<path fill="none" stroke="black" d="M40,-71.6966C40,-63.9827 40,-54.7125 40,-46.1124"/>
<polygon fill="black" stroke="black" points="43.5001,-46.1043 40,-36.1043 36.5001,-46.1044 43.5001,-46.1043"/>
</g>
<!-- 708 -->
<g id="node21" class="node"><title>708</title>
</g>
<!-- 707&#45;&gt;708 -->
<g id="edge56" class="edge"><title>707&#45;&gt;708</title>
<path fill="none" stroke="black" d="M145,-143.697C145,-135.983 145,-126.712 145,-118.112"/>
<polygon fill="black" stroke="black" points="148.5,-118.104 145,-108.104 141.5,-118.104 148.5,-118.104"/>
</g>
<!-- 710 -->
<g id="node23" class="node"><title>710</title>
</g>
<!-- 709&#45;&gt;710 -->
<g id="edge58" class="edge"><title>709&#45;&gt;710</title>
<path fill="none" stroke="black" d="M236,-215.697C236,-207.983 236,-198.712 236,-190.112"/>
<polygon fill="black" stroke="black" points="239.5,-190.104 236,-180.104 232.5,-190.104 239.5,-190.104"/>
</g>
<!-- 712 -->
<g id="node25" class="node"><title>712</title>
<text text-anchor="middle" x="342" y="-446.3" font-family="Times,serif" font-size="14.00">@Kw :</text>
</g>
<!-- 711&#45;&gt;712 -->
<g id="edge60" class="edge"><title>711&#45;&gt;712</title>
<path fill="none" stroke="black" d="M342,-503.697C342,-495.983 342,-486.712 342,-478.112"/>
<polygon fill="black" stroke="black" points="345.5,-478.104 342,-468.104 338.5,-478.104 345.5,-478.104"/>
</g>
<!-- 714 -->
<g id="node27" class="node"><title>714</title>
<text text-anchor="middle" x="415" y="-446.3" font-family="Times,serif" font-size="14.00">&lt;eq&gt;</text>
</g>
<!-- 713&#45;&gt;714 -->
<g id="edge62" class="edge"><title>713&#45;&gt;714</title>
<path fill="none" stroke="black" d="M414.247,-503.697C414.357,-495.983 414.49,-486.712 414.613,-478.112"/>
<polygon fill="black" stroke="black" points="418.112,-478.153 414.756,-468.104 411.113,-478.053 418.112,-478.153"/>
</g>
<!-- 715 -->
<g id="node28" class="node"><title>715</title>
<text text-anchor="middle" x="417" y="-374.3" font-family="Times,serif" font-size="14.00">&lt;ty&gt;</text>
</g>
<!-- 714&#45;&gt;715 -->
<g id="edge64" class="edge"><title>714&#45;&gt;715</title>
<path fill="none" stroke="black" d="M415.494,-431.697C415.715,-423.983 415.98,-414.712 416.225,-406.112"/>
<polygon fill="black" stroke="black" points="419.724,-406.2 416.511,-396.104 412.727,-406 419.724,-406.2"/>
</g>
<!-- 716 -->
<g id="node29" class="node"><title>716</title>
<text text-anchor="middle" x="420" y="-302.3" font-family="Times,serif" font-size="14.00">&lt;call&gt;</text>
</g>
<!-- 715&#45;&gt;716 -->
<g id="edge66" class="edge"><title>715&#45;&gt;716</title>
<path fill="none" stroke="black" d="M417.742,-359.697C418.072,-351.983 418.469,-342.712 418.838,-334.112"/>
<polygon fill="black" stroke="black" points="422.335,-334.245 419.267,-324.104 415.342,-333.945 422.335,-334.245"/>
</g>
<!-- 717 -->
<g id="node30" class="node"><title>717</title>
<text text-anchor="middle" x="420" y="-230.3" font-family="Times,serif" font-size="14.00">&lt;projection&gt;</text>
</g>
<!-- 716&#45;&gt;717 -->
<g id="edge68" class="edge"><title>716&#45;&gt;717</title>
<path fill="none" stroke="black" d="M420,-287.697C420,-279.983 420,-270.712 420,-262.112"/>
<polygon fill="black" stroke="black" points="423.5,-262.104 420,-252.104 416.5,-262.104 423.5,-262.104"/>
</g>
<!-- 723 -->
<g id="node36" class="node"><title>723</title>
<text text-anchor="middle" x="512" y="-230.3" font-family="Times,serif" font-size="14.00">&lt;call&#39;&gt;</text>
</g>
<!-- 716&#45;&gt;723 -->
<g id="edge70" class="edge"><title>716&#45;&gt;723</title>
<path fill="none" stroke="black" d="M442.742,-287.697C454.44,-278.796 468.861,-267.823 481.51,-258.199"/>
<polygon fill="black" stroke="black" points="483.681,-260.945 489.52,-252.104 479.442,-255.374 483.681,-260.945"/>
</g>
<!-- 718 -->
<g id="node31" class="node"><title>718</title>
<text text-anchor="middle" x="322" y="-158.3" font-family="Times,serif" font-size="14.00">&lt;primitive&gt;</text>
</g>
<!-- 717&#45;&gt;718 -->
<g id="edge72" class="edge"><title>717&#45;&gt;718</title>
<path fill="none" stroke="black" d="M396.027,-215.876C383.45,-206.893 367.868,-195.763 354.248,-186.034"/>
<polygon fill="black" stroke="black" points="356.237,-183.154 346.066,-180.19 352.169,-188.85 356.237,-183.154"/>
</g>
<!-- 721 -->
<g id="node34" class="node"><title>721</title>
<text text-anchor="middle" x="427" y="-158.3" font-family="Times,serif" font-size="14.00">&lt;projection&#39;&gt;</text>
</g>
<!-- 717&#45;&gt;721 -->
<g id="edge74" class="edge"><title>717&#45;&gt;721</title>
<path fill="none" stroke="black" d="M421.73,-215.697C422.502,-207.983 423.429,-198.712 424.289,-190.112"/>
<polygon fill="black" stroke="black" points="427.777,-190.403 425.29,-180.104 420.812,-189.706 427.777,-190.403"/>
</g>
<!-- 719 -->
<g id="node32" class="node"><title>719</title>
<text text-anchor="middle" x="322" y="-86.3" font-family="Times,serif" font-size="14.00">&lt;bits&gt;</text>
</g>
<!-- 718&#45;&gt;719 -->
<g id="edge76" class="edge"><title>718&#45;&gt;719</title>
<path fill="none" stroke="black" d="M322,-143.697C322,-135.983 322,-126.712 322,-118.112"/>
<polygon fill="black" stroke="black" points="325.5,-118.104 322,-108.104 318.5,-118.104 325.5,-118.104"/>
</g>
<!-- 720 -->
<g id="node33" class="node"><title>720</title>
<text text-anchor="middle" x="322" y="-14.3" font-family="Times,serif" font-size="14.00">@Bt 1</text>
</g>
<!-- 719&#45;&gt;720 -->
<g id="edge78" class="edge"><title>719&#45;&gt;720</title>
<path fill="none" stroke="black" d="M322,-71.6966C322,-63.9827 322,-54.7125 322,-46.1124"/>
<polygon fill="black" stroke="black" points="325.5,-46.1043 322,-36.1043 318.5,-46.1044 325.5,-46.1043"/>
</g>
<!-- 722 -->
<g id="node35" class="node"><title>722</title>
</g>
<!-- 721&#45;&gt;722 -->
<g id="edge80" class="edge"><title>721&#45;&gt;722</title>
<path fill="none" stroke="black" d="M427,-143.697C427,-135.983 427,-126.712 427,-118.112"/>
<polygon fill="black" stroke="black" points="430.5,-118.104 427,-108.104 423.5,-118.104 430.5,-118.104"/>
</g>
<!-- 724 -->
<g id="node37" class="node"><title>724</title>
</g>
<!-- 723&#45;&gt;724 -->
<g id="edge82" class="edge"><title>723&#45;&gt;724</title>
<path fill="none" stroke="black" d="M513.483,-215.697C514.144,-207.983 514.939,-198.712 515.676,-190.112"/>
<polygon fill="black" stroke="black" points="519.167,-190.367 516.534,-180.104 512.193,-189.769 519.167,-190.367"/>
</g>
<!-- 726 -->
<g id="node39" class="node"><title>726</title>
<text text-anchor="middle" x="489" y="-446.3" font-family="Times,serif" font-size="14.00">@Kw ]</text>
</g>
<!-- 725&#45;&gt;726 -->
<g id="edge84" class="edge"><title>725&#45;&gt;726</title>
<path fill="none" stroke="black" d="M486.742,-503.697C487.072,-495.983 487.469,-486.712 487.838,-478.112"/>
<polygon fill="black" stroke="black" points="491.335,-478.245 488.267,-468.104 484.342,-477.945 491.335,-478.245"/>
</g>
<!-- 728 -->
<g id="node41" class="node"><title>728</title>
</g>
<!-- 727&#45;&gt;728 -->
<g id="edge86" class="edge"><title>727&#45;&gt;728</title>
<path fill="none" stroke="black" d="M575.27,-503.697C574.498,-495.983 573.571,-486.712 572.711,-478.112"/>
<polygon fill="black" stroke="black" points="576.188,-477.706 571.71,-468.104 569.223,-478.403 576.188,-477.706"/>
</g>
<!-- 730 -->
<g id="node43" class="node"><title>730</title>
</g>
<!-- 729&#45;&gt;730 -->
<g id="edge88" class="edge"><title>729&#45;&gt;730</title>
<path fill="none" stroke="black" d="M502,-647.697C502,-639.983 502,-630.712 502,-622.112"/>
<polygon fill="black" stroke="black" points="505.5,-622.104 502,-612.104 498.5,-622.104 505.5,-622.104"/>
</g>
<!-- 732 -->
<g id="node45" class="node"><title>732</title>
<text text-anchor="middle" x="595" y="-734.3" font-family="Times,serif" font-size="14.00">@Kw =</text>
</g>
<!-- 731&#45;&gt;732 -->
<g id="edge90" class="edge"><title>731&#45;&gt;732</title>
<path fill="none" stroke="black" d="M595,-791.697C595,-783.983 595,-774.712 595,-766.112"/>
<polygon fill="black" stroke="black" points="598.5,-766.104 595,-756.104 591.5,-766.104 598.5,-766.104"/>
</g>
<!-- 734 -->
<g id="node47" class="node"><title>734</title>
<text text-anchor="middle" x="680" y="-734.3" font-family="Times,serif" font-size="14.00">&lt;eq&gt;</text>
</g>
<!-- 733&#45;&gt;734 -->
<g id="edge92" class="edge"><title>733&#45;&gt;734</title>
<path fill="none" stroke="black" d="M674.73,-791.697C675.502,-783.983 676.429,-774.712 677.289,-766.112"/>
<polygon fill="black" stroke="black" points="680.777,-766.403 678.29,-756.104 673.812,-765.706 680.777,-766.403"/>
</g>
<!-- 735 -->
<g id="node48" class="node"><title>735</title>
<text text-anchor="middle" x="714" y="-662.3" font-family="Times,serif" font-size="14.00">&lt;ty&gt;</text>
</g>
<!-- 734&#45;&gt;735 -->
<g id="edge94" class="edge"><title>734&#45;&gt;735</title>
<path fill="none" stroke="black" d="M688.404,-719.697C692.275,-711.728 696.952,-702.1 701.243,-693.264"/>
<polygon fill="black" stroke="black" points="704.471,-694.629 705.692,-684.104 698.175,-691.57 704.471,-694.629"/>
</g>
<!-- 736 -->
<g id="node49" class="node"><title>736</title>
<text text-anchor="middle" x="723" y="-590.3" font-family="Times,serif" font-size="14.00">&lt;call&gt;</text>
</g>
<!-- 735&#45;&gt;736 -->
<g id="edge96" class="edge"><title>735&#45;&gt;736</title>
<path fill="none" stroke="black" d="M716.225,-647.697C717.217,-639.983 718.408,-630.712 719.514,-622.112"/>
<polygon fill="black" stroke="black" points="722.997,-622.469 720.801,-612.104 716.054,-621.576 722.997,-622.469"/>
</g>
<!-- 737 -->
<g id="node50" class="node"><title>737</title>
<text text-anchor="middle" x="723" y="-518.3" font-family="Times,serif" font-size="14.00">&lt;projection&gt;</text>
</g>
<!-- 736&#45;&gt;737 -->
<g id="edge98" class="edge"><title>736&#45;&gt;737</title>
<path fill="none" stroke="black" d="M723,-575.697C723,-567.983 723,-558.712 723,-550.112"/>
<polygon fill="black" stroke="black" points="726.5,-550.104 723,-540.104 719.5,-550.104 726.5,-550.104"/>
</g>
<!-- 743 -->
<g id="node56" class="node"><title>743</title>
<text text-anchor="middle" x="903" y="-518.3" font-family="Times,serif" font-size="14.00">&lt;call&#39;&gt;</text>
</g>
<!-- 736&#45;&gt;743 -->
<g id="edge100" class="edge"><title>736&#45;&gt;743</title>
<path fill="none" stroke="black" d="M750.338,-582.369C781.22,-570.359 831.642,-550.75 866.022,-537.38"/>
<polygon fill="black" stroke="black" points="867.649,-540.503 875.7,-533.617 865.111,-533.979 867.649,-540.503"/>
</g>
<!-- 738 -->
<g id="node51" class="node"><title>738</title>
<text text-anchor="middle" x="656" y="-446.3" font-family="Times,serif" font-size="14.00">&lt;primitive&gt;</text>
</g>
<!-- 737&#45;&gt;738 -->
<g id="edge102" class="edge"><title>737&#45;&gt;738</title>
<path fill="none" stroke="black" d="M706.438,-503.697C698.325,-495.22 688.412,-484.864 679.529,-475.583"/>
<polygon fill="black" stroke="black" points="681.814,-472.908 672.371,-468.104 676.757,-477.749 681.814,-472.908"/>
</g>
<!-- 741 -->
<g id="node54" class="node"><title>741</title>
<text text-anchor="middle" x="761" y="-446.3" font-family="Times,serif" font-size="14.00">&lt;projection&#39;&gt;</text>
</g>
<!-- 737&#45;&gt;741 -->
<g id="edge104" class="edge"><title>737&#45;&gt;741</title>
<path fill="none" stroke="black" d="M732.393,-503.697C736.765,-495.644 742.057,-485.894 746.895,-476.982"/>
<polygon fill="black" stroke="black" points="750.02,-478.563 751.715,-468.104 743.868,-475.223 750.02,-478.563"/>
</g>
<!-- 739 -->
<g id="node52" class="node"><title>739</title>
<text text-anchor="middle" x="656" y="-374.3" font-family="Times,serif" font-size="14.00">&lt;id&gt;</text>
</g>
<!-- 738&#45;&gt;739 -->
<g id="edge106" class="edge"><title>738&#45;&gt;739</title>
<path fill="none" stroke="black" d="M656,-431.697C656,-423.983 656,-414.712 656,-406.112"/>
<polygon fill="black" stroke="black" points="659.5,-406.104 656,-396.104 652.5,-406.104 659.5,-406.104"/>
</g>
<!-- 740 -->
<g id="node53" class="node"><title>740</title>
<text text-anchor="middle" x="656" y="-302.3" font-family="Times,serif" font-size="14.00">@Id f</text>
</g>
<!-- 739&#45;&gt;740 -->
<g id="edge108" class="edge"><title>739&#45;&gt;740</title>
<path fill="none" stroke="black" d="M656,-359.697C656,-351.983 656,-342.712 656,-334.112"/>
<polygon fill="black" stroke="black" points="659.5,-334.104 656,-324.104 652.5,-334.104 659.5,-334.104"/>
</g>
<!-- 742 -->
<g id="node55" class="node"><title>742</title>
</g>
<!-- 741&#45;&gt;742 -->
<g id="edge110" class="edge"><title>741&#45;&gt;742</title>
<path fill="none" stroke="black" d="M756.798,-431.697C754.904,-423.898 752.623,-414.509 750.516,-405.829"/>
<polygon fill="black" stroke="black" points="753.915,-404.996 748.154,-396.104 747.113,-406.648 753.915,-404.996"/>
</g>
<!-- 744 -->
<g id="node57" class="node"><title>744</title>
<text text-anchor="middle" x="903" y="-446.3" font-family="Times,serif" font-size="14.00">&lt;projection&gt;</text>
</g>
<!-- 743&#45;&gt;744 -->
<g id="edge112" class="edge"><title>743&#45;&gt;744</title>
<path fill="none" stroke="black" d="M903,-503.697C903,-495.983 903,-486.712 903,-478.112"/>
<polygon fill="black" stroke="black" points="906.5,-478.104 903,-468.104 899.5,-478.104 906.5,-478.104"/>
</g>
<!-- 750 -->
<g id="node63" class="node"><title>750</title>
<text text-anchor="middle" x="993" y="-446.3" font-family="Times,serif" font-size="14.00">&lt;call&#39;&gt;</text>
</g>
<!-- 743&#45;&gt;750 -->
<g id="edge114" class="edge"><title>743&#45;&gt;750</title>
<path fill="none" stroke="black" d="M925.247,-503.697C936.582,-494.881 950.53,-484.032 962.819,-474.474"/>
<polygon fill="black" stroke="black" points="965.264,-477.007 971.009,-468.104 960.966,-471.481 965.264,-477.007"/>
</g>
<!-- 745 -->
<g id="node58" class="node"><title>745</title>
<text text-anchor="middle" x="830" y="-374.3" font-family="Times,serif" font-size="14.00">&lt;primitive&gt;</text>
</g>
<!-- 744&#45;&gt;745 -->
<g id="edge116" class="edge"><title>744&#45;&gt;745</title>
<path fill="none" stroke="black" d="M884.955,-431.697C875.938,-423.05 864.882,-412.449 855.057,-403.027"/>
<polygon fill="black" stroke="black" points="857.478,-400.499 847.837,-396.104 852.633,-405.552 857.478,-400.499"/>
</g>
<!-- 748 -->
<g id="node61" class="node"><title>748</title>
<text text-anchor="middle" x="935" y="-374.3" font-family="Times,serif" font-size="14.00">&lt;projection&#39;&gt;</text>
</g>
<!-- 744&#45;&gt;748 -->
<g id="edge118" class="edge"><title>744&#45;&gt;748</title>
<path fill="none" stroke="black" d="M910.91,-431.697C914.553,-423.728 918.954,-414.1 922.994,-405.264"/>
<polygon fill="black" stroke="black" points="926.206,-406.654 927.181,-396.104 919.84,-403.744 926.206,-406.654"/>
</g>
<!-- 746 -->
<g id="node59" class="node"><title>746</title>
<text text-anchor="middle" x="830" y="-302.3" font-family="Times,serif" font-size="14.00">&lt;id&gt;</text>
</g>
<!-- 745&#45;&gt;746 -->
<g id="edge120" class="edge"><title>745&#45;&gt;746</title>
<path fill="none" stroke="black" d="M830,-359.697C830,-351.983 830,-342.712 830,-334.112"/>
<polygon fill="black" stroke="black" points="833.5,-334.104 830,-324.104 826.5,-334.104 833.5,-334.104"/>
</g>
<!-- 747 -->
<g id="node60" class="node"><title>747</title>
<text text-anchor="middle" x="830" y="-230.3" font-family="Times,serif" font-size="14.00">@Id x</text>
</g>
<!-- 746&#45;&gt;747 -->
<g id="edge122" class="edge"><title>746&#45;&gt;747</title>
<path fill="none" stroke="black" d="M830,-287.697C830,-279.983 830,-270.712 830,-262.112"/>
<polygon fill="black" stroke="black" points="833.5,-262.104 830,-252.104 826.5,-262.104 833.5,-262.104"/>
</g>
<!-- 749 -->
<g id="node62" class="node"><title>749</title>
</g>
<!-- 748&#45;&gt;749 -->
<g id="edge124" class="edge"><title>748&#45;&gt;749</title>
<path fill="none" stroke="black" d="M935,-359.697C935,-351.983 935,-342.712 935,-334.112"/>
<polygon fill="black" stroke="black" points="938.5,-334.104 935,-324.104 931.5,-334.104 938.5,-334.104"/>
</g>
<!-- 751 -->
<g id="node64" class="node"><title>751</title>
</g>
<!-- 750&#45;&gt;751 -->
<g id="edge126" class="edge"><title>750&#45;&gt;751</title>
<path fill="none" stroke="black" d="M1001.16,-431.697C1004.91,-423.728 1009.45,-414.1 1013.62,-405.264"/>
<polygon fill="black" stroke="black" points="1016.84,-406.642 1017.94,-396.104 1010.51,-403.657 1016.84,-406.642"/>
</g>
</g>
</svg>
