<?xml version="1.0" encoding="UTF-8" standalone="no"?>
<!DOCTYPE svg PUBLIC "-//W3C//DTD SVG 1.1//EN"
 "http://www.w3.org/Graphics/SVG/1.1/DTD/svg11.dtd">
<!-- Generated by graphviz version 2.28.0 (20120716.1447)
 -->
<!-- Title: _anonymous_0 Pages: 1 -->
<svg width="621pt" height="836pt"
 viewBox="0.00 0.00 621.00 836.00" xmlns="http://www.w3.org/2000/svg" xmlns:xlink="http://www.w3.org/1999/xlink">
<g id="graph1" class="graph" transform="scale(1 1) rotate(0) translate(4 832)">
<title>_anonymous_0</title>
<polygon fill="white" stroke="white" points="-4,5 -4,-832 618,-832 618,5 -4,5"/>
<!-- 0 -->
<g id="node1" class="node"><title>0</title>
<text text-anchor="middle" x="46" y="-302.3" font-family="Times,serif" font-size="14.00">@Kw lambda</text>
</g>
<!-- 1 -->
<g id="node2" class="node"><title>1</title>
<text text-anchor="middle" x="147" y="-374.3" font-family="Times,serif" font-size="14.00">lambda</text>
</g>
<!-- 1&#45;&gt;0 -->
<g id="edge2" class="edge"><title>1&#45;&gt;0</title>
<path fill="none" stroke="black" d="M122.293,-359.876C109.331,-350.893 93.2716,-339.763 79.235,-330.034"/>
<polygon fill="black" stroke="black" points="81.0151,-327.009 70.8024,-324.19 77.0276,-332.763 81.0151,-327.009"/>
</g>
<!-- 2 -->
<g id="node4" class="node"><title>2</title>
<text text-anchor="middle" x="46" y="-86.3" font-family="Times,serif" font-size="14.00">@Id bit</text>
</g>
<!-- 3 -->
<g id="node5" class="node"><title>3</title>
<text text-anchor="middle" x="46" y="-158.3" font-family="Times,serif" font-size="14.00">&lt;id&gt;</text>
</g>
<!-- 3&#45;&gt;2 -->
<g id="edge4" class="edge"><title>3&#45;&gt;2</title>
<path fill="none" stroke="black" d="M46,-143.697C46,-135.983 46,-126.712 46,-118.112"/>
<polygon fill="black" stroke="black" points="49.5001,-118.104 46,-108.104 42.5001,-118.104 49.5001,-118.104"/>
</g>
<!-- 4 -->
<g id="node7" class="node"><title>4</title>
<text text-anchor="middle" x="46" y="-230.3" font-family="Times,serif" font-size="14.00">&lt;typename&gt;</text>
</g>
<!-- 4&#45;&gt;3 -->
<g id="edge6" class="edge"><title>4&#45;&gt;3</title>
<path fill="none" stroke="black" d="M46,-215.697C46,-207.983 46,-198.712 46,-190.112"/>
<polygon fill="black" stroke="black" points="49.5001,-190.104 46,-180.104 42.5001,-190.104 49.5001,-190.104"/>
</g>
<!-- 5 -->
<g id="node9" class="node"><title>5</title>
<text text-anchor="middle" x="126" y="-158.3" font-family="Times,serif" font-size="14.00">@Id a</text>
</g>
<!-- 6 -->
<g id="node10" class="node"><title>6</title>
<text text-anchor="middle" x="134" y="-230.3" font-family="Times,serif" font-size="14.00">&lt;id&gt;</text>
</g>
<!-- 6&#45;&gt;5 -->
<g id="edge8" class="edge"><title>6&#45;&gt;5</title>
<path fill="none" stroke="black" d="M132.022,-215.697C131.141,-207.983 130.081,-198.712 129.099,-190.112"/>
<polygon fill="black" stroke="black" points="132.568,-189.642 127.955,-180.104 125.613,-190.437 132.568,-189.642"/>
</g>
<!-- 7 -->
<g id="node12" class="node"><title>7</title>
<text text-anchor="middle" x="154" y="-302.3" font-family="Times,serif" font-size="14.00">&lt;parameter&gt;</text>
</g>
<!-- 7&#45;&gt;4 -->
<g id="edge10" class="edge"><title>7&#45;&gt;4</title>
<path fill="none" stroke="black" d="M127.58,-287.876C113.59,-278.808 96.2236,-267.552 81.1142,-257.759"/>
<polygon fill="black" stroke="black" points="82.8165,-254.692 72.5213,-252.19 79.0092,-260.566 82.8165,-254.692"/>
</g>
<!-- 7&#45;&gt;6 -->
<g id="edge12" class="edge"><title>7&#45;&gt;6</title>
<path fill="none" stroke="black" d="M149.056,-287.697C146.828,-279.898 144.145,-270.509 141.665,-261.829"/>
<polygon fill="black" stroke="black" points="145,-260.758 138.887,-252.104 138.269,-262.681 145,-260.758"/>
</g>
<!-- 8 -->
<g id="node15" class="node"><title>8</title>
<text text-anchor="middle" x="214" y="-14.3" font-family="Times,serif" font-size="14.00">@Id bit</text>
</g>
<!-- 9 -->
<g id="node16" class="node"><title>9</title>
<text text-anchor="middle" x="214" y="-86.3" font-family="Times,serif" font-size="14.00">&lt;id&gt;</text>
</g>
<!-- 9&#45;&gt;8 -->
<g id="edge14" class="edge"><title>9&#45;&gt;8</title>
<path fill="none" stroke="black" d="M214,-71.6966C214,-63.9827 214,-54.7125 214,-46.1124"/>
<polygon fill="black" stroke="black" points="217.5,-46.1043 214,-36.1043 210.5,-46.1044 217.5,-46.1043"/>
</g>
<!-- 10 -->
<g id="node18" class="node"><title>10</title>
<text text-anchor="middle" x="214" y="-158.3" font-family="Times,serif" font-size="14.00">&lt;typename&gt;</text>
</g>
<!-- 10&#45;&gt;9 -->
<g id="edge16" class="edge"><title>10&#45;&gt;9</title>
<path fill="none" stroke="black" d="M214,-143.697C214,-135.983 214,-126.712 214,-118.112"/>
<polygon fill="black" stroke="black" points="217.5,-118.104 214,-108.104 210.5,-118.104 217.5,-118.104"/>
</g>
<!-- 11 -->
<g id="node20" class="node"><title>11</title>
<text text-anchor="middle" x="302" y="-86.3" font-family="Times,serif" font-size="14.00">@Id b</text>
</g>
<!-- 12 -->
<g id="node21" class="node"><title>12</title>
<text text-anchor="middle" x="302" y="-158.3" font-family="Times,serif" font-size="14.00">&lt;id&gt;</text>
</g>
<!-- 12&#45;&gt;11 -->
<g id="edge18" class="edge"><title>12&#45;&gt;11</title>
<path fill="none" stroke="black" d="M302,-143.697C302,-135.983 302,-126.712 302,-118.112"/>
<polygon fill="black" stroke="black" points="305.5,-118.104 302,-108.104 298.5,-118.104 305.5,-118.104"/>
</g>
<!-- 13 -->
<g id="node23" class="node"><title>13</title>
<text text-anchor="middle" x="223" y="-230.3" font-family="Times,serif" font-size="14.00">&lt;parameter&gt;</text>
</g>
<!-- 13&#45;&gt;10 -->
<g id="edge20" class="edge"><title>13&#45;&gt;10</title>
<path fill="none" stroke="black" d="M220.775,-215.697C219.783,-207.983 218.592,-198.712 217.486,-190.112"/>
<polygon fill="black" stroke="black" points="220.946,-189.576 216.199,-180.104 214.003,-190.469 220.946,-189.576"/>
</g>
<!-- 13&#45;&gt;12 -->
<g id="edge22" class="edge"><title>13&#45;&gt;12</title>
<path fill="none" stroke="black" d="M242.528,-215.697C252.382,-206.965 264.486,-196.24 275.196,-186.75"/>
<polygon fill="black" stroke="black" points="277.533,-189.356 282.697,-180.104 272.891,-184.117 277.533,-189.356"/>
</g>
<!-- 14 -->
<g id="node26" class="node"><title>14</title>
</g>
<!-- 15 -->
<g id="node27" class="node"><title>15</title>
<text text-anchor="middle" x="332" y="-230.3" font-family="Times,serif" font-size="14.00">&lt;parameters&gt;</text>
</g>
<!-- 15&#45;&gt;14 -->
<g id="edge24" class="edge"><title>15&#45;&gt;14</title>
<path fill="none" stroke="black" d="M342.382,-215.697C347.265,-207.559 353.187,-197.689 358.579,-188.701"/>
<polygon fill="black" stroke="black" points="361.594,-190.48 363.737,-180.104 355.591,-186.879 361.594,-190.48"/>
</g>
<!-- 16 -->
<g id="node29" class="node"><title>16</title>
<text text-anchor="middle" x="302" y="-302.3" font-family="Times,serif" font-size="14.00">&lt;parameters&gt;</text>
</g>
<!-- 16&#45;&gt;13 -->
<g id="edge26" class="edge"><title>16&#45;&gt;13</title>
<path fill="none" stroke="black" d="M282.472,-287.697C272.618,-278.965 260.514,-268.24 249.804,-258.75"/>
<polygon fill="black" stroke="black" points="252.109,-256.117 242.303,-252.104 247.467,-261.356 252.109,-256.117"/>
</g>
<!-- 16&#45;&gt;15 -->
<g id="edge28" class="edge"><title>16&#45;&gt;15</title>
<path fill="none" stroke="black" d="M309.416,-287.697C312.794,-279.813 316.87,-270.304 320.623,-261.546"/>
<polygon fill="black" stroke="black" points="323.947,-262.675 324.67,-252.104 317.513,-259.917 323.947,-262.675"/>
</g>
<!-- 17 -->
<g id="node32" class="node"><title>17</title>
<text text-anchor="middle" x="302" y="-374.3" font-family="Times,serif" font-size="14.00">&lt;parameters&gt;</text>
</g>
<!-- 17&#45;&gt;7 -->
<g id="edge30" class="edge"><title>17&#45;&gt;7</title>
<path fill="none" stroke="black" d="M265.795,-359.876C245.742,-350.392 220.628,-338.513 199.286,-328.419"/>
<polygon fill="black" stroke="black" points="200.624,-325.18 190.087,-324.068 197.631,-331.508 200.624,-325.18"/>
</g>
<!-- 17&#45;&gt;16 -->
<g id="edge32" class="edge"><title>17&#45;&gt;16</title>
<path fill="none" stroke="black" d="M302,-359.697C302,-351.983 302,-342.712 302,-334.112"/>
<polygon fill="black" stroke="black" points="305.5,-334.104 302,-324.104 298.5,-334.104 305.5,-334.104"/>
</g>
<!-- 18 -->
<g id="node35" class="node"><title>18</title>
<text text-anchor="middle" x="427" y="-230.3" font-family="Times,serif" font-size="14.00">@Kw {</text>
</g>
<!-- 19 -->
<g id="node36" class="node"><title>19</title>
<text text-anchor="middle" x="427" y="-302.3" font-family="Times,serif" font-size="14.00">{</text>
</g>
<!-- 19&#45;&gt;18 -->
<g id="edge34" class="edge"><title>19&#45;&gt;18</title>
<path fill="none" stroke="black" d="M427,-287.697C427,-279.983 427,-270.712 427,-262.112"/>
<polygon fill="black" stroke="black" points="430.5,-262.104 427,-252.104 423.5,-262.104 430.5,-262.104"/>
</g>
<!-- 20 -->
<g id="node38" class="node"><title>20</title>
<text text-anchor="middle" x="502" y="-230.3" font-family="Times,serif" font-size="14.00">@Id x</text>
</g>
<!-- 21 -->
<g id="node39" class="node"><title>21</title>
<text text-anchor="middle" x="500" y="-302.3" font-family="Times,serif" font-size="14.00">&lt;id&gt;</text>
</g>
<!-- 21&#45;&gt;20 -->
<g id="edge36" class="edge"><title>21&#45;&gt;20</title>
<path fill="none" stroke="black" d="M500.494,-287.697C500.715,-279.983 500.98,-270.712 501.225,-262.112"/>
<polygon fill="black" stroke="black" points="504.724,-262.2 501.511,-252.104 497.727,-262 504.724,-262.2"/>
</g>
<!-- 22 -->
<g id="node41" class="node"><title>22</title>
<text text-anchor="middle" x="577" y="-230.3" font-family="Times,serif" font-size="14.00">@Kw }</text>
</g>
<!-- 23 -->
<g id="node42" class="node"><title>23</title>
<text text-anchor="middle" x="574" y="-302.3" font-family="Times,serif" font-size="14.00">}</text>
</g>
<!-- 23&#45;&gt;22 -->
<g id="edge38" class="edge"><title>23&#45;&gt;22</title>
<path fill="none" stroke="black" d="M574.742,-287.697C575.072,-279.983 575.469,-270.712 575.838,-262.112"/>
<polygon fill="black" stroke="black" points="579.335,-262.245 576.267,-252.104 572.342,-261.945 579.335,-262.245"/>
</g>
<!-- 24 -->
<g id="node44" class="node"><title>24</title>
<text text-anchor="middle" x="427" y="-374.3" font-family="Times,serif" font-size="14.00">&lt;block&gt;</text>
</g>
<!-- 24&#45;&gt;19 -->
<g id="edge40" class="edge"><title>24&#45;&gt;19</title>
<path fill="none" stroke="black" d="M427,-359.697C427,-351.983 427,-342.712 427,-334.112"/>
<polygon fill="black" stroke="black" points="430.5,-334.104 427,-324.104 423.5,-334.104 430.5,-334.104"/>
</g>
<!-- 24&#45;&gt;21 -->
<g id="edge42" class="edge"><title>24&#45;&gt;21</title>
<path fill="none" stroke="black" d="M445.045,-359.697C454.062,-351.05 465.118,-340.449 474.943,-331.027"/>
<polygon fill="black" stroke="black" points="477.367,-333.552 482.163,-324.104 472.522,-328.499 477.367,-333.552"/>
</g>
<!-- 24&#45;&gt;23 -->
<g id="edge44" class="edge"><title>24&#45;&gt;23</title>
<path fill="none" stroke="black" d="M459.26,-361.638C482.389,-350.624 513.575,-335.774 537.596,-324.335"/>
<polygon fill="black" stroke="black" points="539.223,-327.437 546.747,-319.977 536.214,-321.117 539.223,-327.437"/>
</g>
<!-- 25 -->
<g id="node48" class="node"><title>25</title>
<text text-anchor="middle" x="312" y="-446.3" font-family="Times,serif" font-size="14.00">&lt;primitive&gt;</text>
</g>
<!-- 25&#45;&gt;1 -->
<g id="edge46" class="edge"><title>25&#45;&gt;1</title>
<path fill="none" stroke="black" d="M271.636,-431.876C245.157,-420.642 210.761,-406.05 184.813,-395.042"/>
<polygon fill="black" stroke="black" points="185.888,-391.696 175.315,-391.013 183.154,-398.14 185.888,-391.696"/>
</g>
<!-- 25&#45;&gt;17 -->
<g id="edge48" class="edge"><title>25&#45;&gt;17</title>
<path fill="none" stroke="black" d="M309.528,-431.697C308.426,-423.983 307.102,-414.712 305.873,-406.112"/>
<polygon fill="black" stroke="black" points="309.323,-405.509 304.443,-396.104 302.393,-406.499 309.323,-405.509"/>
</g>
<!-- 25&#45;&gt;24 -->
<g id="edge50" class="edge"><title>25&#45;&gt;24</title>
<path fill="none" stroke="black" d="M340.132,-431.876C355.168,-422.724 373.867,-411.342 390.06,-401.485"/>
<polygon fill="black" stroke="black" points="392.038,-404.379 398.76,-396.19 388.398,-398.4 392.038,-404.379"/>
</g>
<!-- 26 -->
<g id="node52" class="node"><title>26</title>
</g>
<!-- 27 -->
<g id="node53" class="node"><title>27</title>
<text text-anchor="middle" x="495" y="-446.3" font-family="Times,serif" font-size="14.00">&lt;projection&#39;&gt;</text>
</g>
<!-- 27&#45;&gt;26 -->
<g id="edge52" class="edge"><title>27&#45;&gt;26</title>
<path fill="none" stroke="black" d="M497.472,-431.697C498.574,-423.983 499.898,-414.712 501.127,-406.112"/>
<polygon fill="black" stroke="black" points="504.607,-406.499 502.557,-396.104 497.677,-405.509 504.607,-406.499"/>
</g>
<!-- 28 -->
<g id="node55" class="node"><title>28</title>
<text text-anchor="middle" x="495" y="-518.3" font-family="Times,serif" font-size="14.00">&lt;projection&gt;</text>
</g>
<!-- 28&#45;&gt;25 -->
<g id="edge54" class="edge"><title>28&#45;&gt;25</title>
<path fill="none" stroke="black" d="M450.701,-504.055C423.922,-493.812 389.716,-480.728 361.974,-470.116"/>
<polygon fill="black" stroke="black" points="363.044,-466.778 352.454,-466.474 360.544,-473.316 363.044,-466.778"/>
</g>
<!-- 28&#45;&gt;27 -->
<g id="edge56" class="edge"><title>28&#45;&gt;27</title>
<path fill="none" stroke="black" d="M495,-503.697C495,-495.983 495,-486.712 495,-478.112"/>
<polygon fill="black" stroke="black" points="498.5,-478.104 495,-468.104 491.5,-478.104 498.5,-478.104"/>
</g>
<!-- 29 -->
<g id="node58" class="node"><title>29</title>
</g>
<!-- 30 -->
<g id="node59" class="node"><title>30</title>
<text text-anchor="middle" x="585" y="-518.3" font-family="Times,serif" font-size="14.00">&lt;call&#39;&gt;</text>
</g>
<!-- 30&#45;&gt;29 -->
<g id="edge58" class="edge"><title>30&#45;&gt;29</title>
<path fill="none" stroke="black" d="M585.247,-503.697C585.357,-495.983 585.49,-486.712 585.613,-478.112"/>
<polygon fill="black" stroke="black" points="589.112,-478.153 585.756,-468.104 582.113,-478.053 589.112,-478.153"/>
</g>
<!-- 31 -->
<g id="node61" class="node"><title>31</title>
<text text-anchor="middle" x="540" y="-590.3" font-family="Times,serif" font-size="14.00">&lt;call&gt;</text>
</g>
<!-- 31&#45;&gt;28 -->
<g id="edge60" class="edge"><title>31&#45;&gt;28</title>
<path fill="none" stroke="black" d="M528.876,-575.697C523.645,-567.559 517.3,-557.689 511.522,-548.701"/>
<polygon fill="black" stroke="black" points="514.347,-546.623 505.996,-540.104 508.459,-550.409 514.347,-546.623"/>
</g>
<!-- 31&#45;&gt;30 -->
<g id="edge62" class="edge"><title>31&#45;&gt;30</title>
<path fill="none" stroke="black" d="M551.124,-575.697C556.355,-567.559 562.7,-557.689 568.478,-548.701"/>
<polygon fill="black" stroke="black" points="571.541,-550.409 574.004,-540.104 565.653,-546.623 571.541,-550.409"/>
</g>
<!-- 32 -->
<g id="node64" class="node"><title>32</title>
<text text-anchor="middle" x="540" y="-662.3" font-family="Times,serif" font-size="14.00">&lt;ty&gt;</text>
</g>
<!-- 32&#45;&gt;31 -->
<g id="edge64" class="edge"><title>32&#45;&gt;31</title>
<path fill="none" stroke="black" d="M540,-647.697C540,-639.983 540,-630.712 540,-622.112"/>
<polygon fill="black" stroke="black" points="543.5,-622.104 540,-612.104 536.5,-622.104 543.5,-622.104"/>
</g>
<!-- 33 -->
<g id="node66" class="node"><title>33</title>
<text text-anchor="middle" x="540" y="-734.3" font-family="Times,serif" font-size="14.00">&lt;eq&gt;</text>
</g>
<!-- 33&#45;&gt;32 -->
<g id="edge66" class="edge"><title>33&#45;&gt;32</title>
<path fill="none" stroke="black" d="M540,-719.697C540,-711.983 540,-702.712 540,-694.112"/>
<polygon fill="black" stroke="black" points="543.5,-694.104 540,-684.104 536.5,-694.104 543.5,-694.104"/>
</g>
<!-- 34 -->
<g id="node68" class="node"><title>34</title>
<text text-anchor="middle" x="540" y="-806.3" font-family="Times,serif" font-size="14.00">&lt;exp&gt;</text>
</g>
<!-- 34&#45;&gt;33 -->
<g id="edge68" class="edge"><title>34&#45;&gt;33</title>
<path fill="none" stroke="black" d="M540,-791.697C540,-783.983 540,-774.712 540,-766.112"/>
<polygon fill="black" stroke="black" points="543.5,-766.104 540,-756.104 536.5,-766.104 543.5,-766.104"/>
</g>
</g>
</svg>
